<svg width="50" height="51" viewBox="0 0 50 51" fill="none" xmlns="http://www.w3.org/2000/svg">
<path d="M42.1558 38.0289C41.6462 36.9029 40.6654 36.5087 40.2135 36.3837L33.7423 32.2587C33.6462 32.1818 32.7327 31.5183 31.3962 31.5183C30.2327 31.5183 28.5019 32.0375 26.9058 34.5279C26.3865 35.3452 25.8 35.4414 25.4058 35.4414C24.4058 35.4414 22.5308 34.7395 19.3577 31.4318L19.1558 31.2202C18.7231 30.7971 16.1942 27.7683 14.6558 25.8933C14.4635 25.6145 12.8769 23.0952 15.1846 21.201C18.1846 18.7298 17.4058 16.0087 16.5981 14.951L12.3769 8.74907C12.2327 8.55676 10.9442 6.82599 9.31924 6.82599C8.91539 6.82599 8.52116 6.94137 8.16539 7.1433C7.66539 7.3933 3.9827 9.32599 2.51155 13.5183C1.42501 16.6433 1.83847 20.1721 3.75193 24.0279C9.3577 35.2779 25.1942 45.4606 25.8673 45.8933C25.9058 45.9125 25.9442 45.9414 25.9923 45.9606C26.1365 46.0279 29.7423 47.6145 33.5212 47.6145C36.7423 47.6145 39.2039 46.4318 40.6366 44.1818C42.3 41.576 42.8096 39.5096 42.1558 38.0289ZM39.0212 43.1433C37.9346 44.8356 36.0885 45.6914 33.5212 45.6914C30.4154 45.6914 27.3096 44.4318 26.8385 44.2298C25.7327 43.5183 10.675 33.6048 5.4827 23.1721C3.80962 19.8068 3.41539 16.7875 4.31924 14.1721C5.58847 10.5279 8.99232 8.88368 9.03078 8.86445C9.05963 8.84522 9.09809 8.8356 9.12693 8.81637C9.19424 8.7683 9.25193 8.74907 9.31924 8.74907C9.76155 8.74907 10.4731 9.40291 10.8 9.85484L15.0308 16.0664C15.2423 16.3548 16.175 17.8933 13.9635 19.7106C10.9923 22.1625 12.0789 25.5375 13.1173 27.0471C13.5308 27.5471 17.1654 31.9702 17.8 32.5952L17.9731 32.7683C20.9346 35.8548 23.3769 37.3645 25.4058 37.3645C26.6942 37.3645 27.7712 36.7395 28.5212 35.5664C29.1462 34.5952 30.1558 33.4414 31.3962 33.4414C32.0885 33.4414 32.5789 33.7875 32.6365 33.8356L39.3096 38.0856C39.425 38.1625 39.5404 38.201 39.675 38.2298C39.675 38.2298 40.1846 38.3356 40.3962 38.8164C40.5692 39.201 40.7808 40.3933 39.0212 43.1433Z" fill="#6DB863"/>
<path d="M39.0212 43.1433C37.9346 44.8356 36.0885 45.6913 33.5212 45.6913C30.4154 45.6913 27.3096 44.4317 26.8385 44.2298C25.7327 43.5183 10.675 33.6048 5.48272 23.1721C3.80964 19.8067 3.41541 16.7875 4.31926 14.1721C5.58849 10.5279 8.99234 8.88364 9.0308 8.86441C9.05964 8.84518 9.0981 8.83556 9.12695 8.81633C9.19426 8.76825 9.25195 8.74902 9.31926 8.74902C9.76157 8.74902 10.4731 9.40287 10.8 9.85479L15.0308 16.0663C15.2423 16.3548 16.175 17.8933 13.9635 19.7106C10.9923 22.1625 12.0789 25.5375 13.1173 27.0471C13.5308 27.5471 17.1654 31.9702 17.8 32.5952L17.9731 32.7683C20.9346 35.8548 23.377 37.3644 25.4058 37.3644C26.6943 37.3644 27.7712 36.7394 28.5212 35.5663C29.1462 34.5952 30.1558 33.4413 31.3962 33.4413C32.0885 33.4413 32.5789 33.7875 32.6366 33.8356L39.3096 38.0856C39.425 38.1625 39.5404 38.2009 39.675 38.2298C39.675 38.2298 40.1846 38.3356 40.3962 38.8163C40.5693 39.2009 40.7808 40.3933 39.0212 43.1433Z" fill="#EDFFEA"/>
<path d="M41.9038 36.0298C41.7142 36.0296 41.5289 35.9733 41.3712 35.8681C41.2135 35.7628 41.0905 35.6133 41.0175 35.4383C40.9445 35.2633 40.9249 35.0706 40.9612 34.8845C40.9974 34.6984 41.0879 34.5272 41.2212 34.3923C44.4029 31.176 46.1558 26.9289 46.1558 22.4337C46.1558 12.9914 38.3673 5.30867 28.7942 5.30867C24.3596 5.30867 20.1385 6.95675 16.9096 9.94809C16.8175 10.0366 16.7088 10.1058 16.5896 10.1518C16.4705 10.1978 16.3434 10.2196 16.2158 10.216C16.0881 10.2123 15.9625 10.1833 15.8462 10.1305C15.7299 10.0778 15.6253 10.0024 15.5384 9.90877C15.4516 9.81515 15.3842 9.70517 15.3404 9.58525C15.2965 9.46533 15.2769 9.33787 15.2828 9.21031C15.2887 9.08274 15.32 8.95764 15.3748 8.84229C15.4296 8.72694 15.5068 8.62366 15.6019 8.53848C19.19 5.21499 23.9035 3.37356 28.7942 3.38463C39.4288 3.38463 48.0788 11.9298 48.0788 22.4327C48.0788 27.4375 46.1288 32.1635 42.5885 35.7443C42.4991 35.8349 42.3924 35.9068 42.2749 35.9556C42.1573 36.0045 42.0312 36.0304 41.9038 36.0298Z" fill="#6DB863"/>
<path d="M28.8442 9.8673C28.591 9.86732 28.348 9.76747 28.168 9.58943C27.988 9.41138 27.8855 9.16952 27.8827 8.91634L27.8327 4.35769C27.8301 4.10283 27.9288 3.85739 28.1072 3.67529C28.2855 3.49318 28.5288 3.38933 28.7836 3.38654H28.7933C29.0463 3.38652 29.2891 3.48624 29.4691 3.66407C29.6491 3.84191 29.7518 4.08352 29.7548 4.33654L29.8058 8.89615C29.8083 9.15101 29.7096 9.39645 29.5313 9.57855C29.353 9.76066 29.1097 9.86451 28.8548 9.8673H28.8452H28.8442ZM42.3952 23.4461C42.2689 23.4468 42.1438 23.4225 42.0268 23.3748C41.91 23.3271 41.8036 23.2568 41.7139 23.1679C41.6241 23.0791 41.5528 22.9734 41.5039 22.857C41.455 22.7406 41.4295 22.6157 41.4288 22.4894C41.4282 22.3631 41.4524 22.238 41.5002 22.1211C41.5479 22.0042 41.6182 21.8978 41.7071 21.8081C41.7959 21.7184 41.9015 21.647 42.018 21.5981C42.1344 21.5492 42.2593 21.5237 42.3856 21.5231L47.1067 21.4721H47.1173C47.3723 21.4708 47.6174 21.5709 47.7986 21.7503C47.9798 21.9298 48.0824 22.1738 48.0836 22.4288C48.0849 22.6839 47.9848 22.9289 47.8054 23.1102C47.626 23.2914 47.3819 23.3939 47.1269 23.3952L42.4058 23.4461H42.3952ZM20.2885 24.9615V24.0317L21.4942 22.8769C24.3952 20.1529 25.7058 18.7048 25.7231 17.0144C25.7231 15.8779 25.1635 14.826 23.4683 14.826C22.4375 14.826 21.5817 15.3423 21.0567 15.7731L20.5683 14.7048C21.4745 13.9627 22.6113 13.56 23.7827 13.5663C26.2298 13.5663 27.2615 15.2221 27.2615 16.825C27.2615 18.8933 25.7413 20.5654 23.3461 22.8423L22.4375 23.6692V23.7038H27.5404V24.9625L20.2885 24.9615ZM35.4538 20.7212V13.7587H33.7904L28.7231 20.9125V21.9125H34.0019V24.9606H35.4538V21.9125H37.0404V20.7202H35.4538V20.7212ZM34.0019 16.9798V20.7202H30.2808V20.6923L33.0596 16.875C33.3769 16.3654 33.6558 15.875 34.0019 15.2212H34.0596C34.0211 15.8077 34.0019 16.3933 34.0019 16.9798Z" fill="#6DB863"/>
</svg>
