<svg width="30" height="30" viewBox="0 0 30 30" xmlns="http://www.w3.org/2000/svg">
    <path
        d="M20.2567 9.74416C20.125 9.61137 19.9684 9.50598 19.7957 9.43406C19.6231 9.36214 19.4379 9.32511 19.2509 9.32511C19.0639 9.32511 18.8787 9.36214 18.7061 9.43406C18.5335 9.50598 18.3768 9.61137 18.2451 9.74416L15.0009 13.0025L11.7567 9.74416C11.49 9.47739 11.1282 9.32753 10.7509 9.32753C10.3736 9.32753 10.0118 9.47739 9.74507 9.74416C9.47831 10.0109 9.32844 10.3727 9.32844 10.75C9.32844 11.1273 9.47831 11.4891 9.74507 11.7558L13.0034 15L9.74507 18.2442C9.61229 18.3759 9.5069 18.5325 9.43498 18.7052C9.36305 18.8778 9.32602 19.063 9.32602 19.25C9.32602 19.437 9.36305 19.6222 9.43498 19.7948C9.5069 19.9674 9.61229 20.1241 9.74507 20.2558C9.87677 20.3886 10.0335 20.494 10.2061 20.5659C10.3787 20.6378 10.5639 20.6749 10.7509 20.6749C10.9379 20.6749 11.1231 20.6378 11.2957 20.5659C11.4684 20.494 11.625 20.3886 11.7567 20.2558L15.0009 16.9975L18.2451 20.2558C18.3768 20.3886 18.5335 20.494 18.7061 20.5659C18.8787 20.6378 19.0639 20.6749 19.2509 20.6749C19.4379 20.6749 19.6231 20.6378 19.7957 20.5659C19.9684 20.494 20.125 20.3886 20.2567 20.2558C20.3895 20.1241 20.4949 19.9674 20.5668 19.7948C20.6388 19.6222 20.6758 19.437 20.6758 19.25C20.6758 19.063 20.6388 18.8778 20.5668 18.7052C20.4949 18.5325 20.3895 18.3759 20.2567 18.2442L16.9984 15L20.2567 11.7558C20.3895 11.6241 20.4949 11.4674 20.5668 11.2948C20.6388 11.1222 20.6758 10.937 20.6758 10.75C20.6758 10.563 20.6388 10.3778 20.5668 10.2052C20.4949 10.0325 20.3895 9.87585 20.2567 9.74416ZM25.0167 4.98416C23.7099 3.6311 22.1467 2.55185 20.4183 1.80939C18.6899 1.06693 16.831 0.676121 14.9499 0.659776C13.0689 0.64343 11.2034 1.00187 9.46239 1.71418C7.72136 2.4265 6.13962 3.47842 4.80948 4.80856C3.47933 6.13871 2.42741 7.72044 1.7151 9.46147C1.00279 11.2025 0.644345 13.068 0.660691 14.949C0.677037 16.83 1.06784 18.689 1.8103 20.4174C2.55276 22.1458 3.63201 23.709 4.98507 25.0158C6.2919 26.3689 7.85512 27.4481 9.58351 28.1906C11.3119 28.9331 13.1708 29.3239 15.0519 29.3402C16.9329 29.3566 18.7984 28.9981 20.5394 28.2858C22.2805 27.5735 23.8622 26.5216 25.1923 25.1914C26.5225 23.8613 27.5744 22.2795 28.2867 20.5385C28.999 18.7975 29.3575 16.932 29.3411 15.051C29.3248 13.1699 28.934 11.311 28.1915 9.58259C27.449 7.8542 26.3698 6.29099 25.0167 4.98416ZM23.0192 23.0183C21.1663 24.8733 18.7275 26.0285 16.1184 26.287C13.5092 26.5455 10.8912 25.8914 8.71023 24.4361C6.52929 22.9808 4.92041 20.8143 4.1577 18.3058C3.39499 15.7972 3.52563 13.1019 4.52737 10.6789C5.5291 8.25585 7.33996 6.25512 9.65142 5.01754C11.9629 3.77996 14.6319 3.38209 17.2038 3.89173C19.7757 4.40136 22.0914 5.78697 23.7562 7.81248C25.4211 9.83798 26.3322 12.3781 26.3342 15C26.3393 16.4893 26.0489 17.9649 25.4799 19.3412C24.9109 20.7175 24.0745 21.9674 23.0192 23.0183Z" />
</svg>
    