<svg width="21" height="21" viewBox="0 0 21 21" xmlns="http://www.w3.org/2000/svg">
    <g>
        <path
            d="M14.7604 20.4324C14.6204 20.4324 14.477 20.4149 14.3354 20.3774L1.44954 16.9266C1.0247 16.8087 0.663155 16.5286 0.442764 16.1467C0.222373 15.7649 0.160766 15.3117 0.271209 14.8849L1.89704 8.82489C1.92701 8.71978 1.99708 8.63065 2.09214 8.57672C2.18721 8.52279 2.29966 8.50837 2.40526 8.53657C2.51086 8.56478 2.60114 8.63334 2.65666 8.72749C2.71218 8.82164 2.72848 8.93384 2.70204 9.03989L1.07704 15.0982C0.961209 15.5399 1.22621 15.9999 1.66871 16.1224L14.5495 19.5716C14.7618 19.6281 14.9878 19.598 15.178 19.488C15.3681 19.378 15.5069 19.1971 15.5637 18.9849L16.2145 16.5732C16.2288 16.5204 16.2533 16.4708 16.2866 16.4274C16.32 16.3841 16.3616 16.3477 16.409 16.3203C16.4565 16.293 16.5088 16.2753 16.5631 16.2682C16.6174 16.2612 16.6725 16.2648 16.7254 16.2791C16.7782 16.2933 16.8278 16.3178 16.8712 16.3512C16.9146 16.3845 16.9509 16.4261 16.9783 16.4736C17.0056 16.521 17.0233 16.5733 17.0304 16.6276C17.0374 16.6819 17.0338 16.737 17.0195 16.7899L16.3695 19.1982C16.2748 19.5525 16.0657 19.8656 15.7747 20.0887C15.4837 20.3119 15.1271 20.4327 14.7604 20.4324Z"
        />
        <path
            d="M18.5495 15.4325H5.21617C4.297 15.4325 3.5495 14.685 3.5495 13.7658V3.76579C3.5495 2.84662 4.297 2.09912 5.21617 2.09912H18.5495C19.4687 2.09912 20.2162 2.84662 20.2162 3.76579V13.7658C20.2162 14.685 19.4687 15.4325 18.5495 15.4325ZM5.21617 2.93245C4.757 2.93245 4.38283 3.30662 4.38283 3.76579V13.7658C4.38283 14.225 4.757 14.5991 5.21617 14.5991H18.5495C19.0087 14.5991 19.3828 14.225 19.3828 13.7658V3.76579C19.3828 3.30662 19.0087 2.93245 18.5495 2.93245H5.21617Z"
        />
        <path
            d="M7.71622 7.93245C6.79705 7.93245 6.04955 7.18495 6.04955 6.26579C6.04955 5.34662 6.79705 4.59912 7.71622 4.59912C8.63538 4.59912 9.38288 5.34662 9.38288 6.26579C9.38288 7.18495 8.63538 7.93245 7.71622 7.93245ZM7.71622 5.43245C7.25705 5.43245 6.88288 5.80662 6.88288 6.26579C6.88288 6.72495 7.25705 7.09912 7.71622 7.09912C8.17538 7.09912 8.54955 6.72495 8.54955 6.26579C8.54955 5.80662 8.17538 5.43245 7.71622 5.43245ZM4.02455 14.5408C3.9422 14.5408 3.86171 14.5164 3.79323 14.4706C3.72475 14.4249 3.67136 14.3599 3.6398 14.2838C3.60823 14.2078 3.59991 14.1241 3.61589 14.0433C3.63186 13.9625 3.67141 13.8883 3.72955 13.83L7.66538 9.89412C8.13705 9.42245 8.96122 9.42245 9.43288 9.89412L10.6045 11.0658L13.8479 7.17412C13.9643 7.0345 14.1098 6.92192 14.2741 6.84421C14.4385 6.7665 14.6178 6.72552 14.7996 6.72412H14.8087C14.989 6.72402 15.1672 6.76292 15.331 6.83815C15.4948 6.91338 15.6405 7.02316 15.7579 7.15995L20.1162 12.245C20.1525 12.2864 20.1803 12.3346 20.1978 12.3868C20.2154 12.4391 20.2224 12.4942 20.2185 12.5492C20.2146 12.6042 20.1999 12.6578 20.1751 12.707C20.1503 12.7562 20.116 12.8 20.0742 12.8359C20.0324 12.8718 19.9838 12.899 19.9314 12.916C19.879 12.933 19.8238 12.9394 19.7688 12.9349C19.7139 12.9304 19.6604 12.9151 19.6115 12.8897C19.5626 12.8644 19.5191 12.8297 19.4837 12.7875L15.1254 7.70245C15.0864 7.65665 15.0378 7.61994 14.9831 7.59489C14.9284 7.56985 14.8689 7.55707 14.8087 7.55745C14.7479 7.55908 14.6881 7.57324 14.6331 7.59905C14.578 7.62486 14.5289 7.66177 14.4887 7.70745L10.9529 11.95C10.9158 11.9945 10.8698 12.0308 10.8178 12.0565C10.7659 12.0822 10.7091 12.0967 10.6512 12.0991C10.5933 12.1027 10.5353 12.0937 10.4812 12.0727C10.4271 12.0517 10.3782 12.0192 10.3379 11.9775L8.84372 10.4833C8.76416 10.4079 8.65873 10.3659 8.54913 10.3659C8.43954 10.3659 8.33411 10.4079 8.25455 10.4833L4.31872 14.4191C4.2801 14.4578 4.23424 14.4884 4.18376 14.5093C4.13328 14.5302 4.07918 14.5409 4.02455 14.5408Z"
        />
    </g>
</svg>
    