<svg width="8" height="5" viewBox="0 0 8 5" xmlns="http://www.w3.org/2000/svg">
    <path
        d="M7.33333 0.613356C7.20842 0.489189 7.03946 0.419495 6.86333 0.419495C6.68721 0.419495 6.51824 0.489189 6.39333 0.613356L4 2.97336L1.64 0.613356C1.51509 0.489189 1.34612 0.419495 1.17 0.419495C0.993875 0.419495 0.824907 0.489189 0.699999 0.613356C0.637513 0.675332 0.587917 0.749066 0.554071 0.830305C0.520225 0.911545 0.5028 0.998682 0.5028 1.08669C0.5028 1.1747 0.520225 1.26183 0.554071 1.34307C0.587917 1.42431 0.637513 1.49805 0.699999 1.56002L3.52667 4.38669C3.58864 4.44918 3.66237 4.49877 3.74361 4.53262C3.82485 4.56646 3.91199 4.58389 4 4.58389C4.08801 4.58389 4.17514 4.56646 4.25638 4.53262C4.33762 4.49877 4.41136 4.44918 4.47333 4.38669L7.33333 1.56002C7.39582 1.49805 7.44541 1.42431 7.47926 1.34307C7.5131 1.26183 7.53053 1.1747 7.53053 1.08669C7.53053 0.998682 7.5131 0.911545 7.47926 0.830305C7.44541 0.749066 7.39582 0.675332 7.33333 0.613356Z"
    />
</svg>