<svg width="48" height="49" viewBox="0 0 48 49" fill="none" xmlns="http://www.w3.org/2000/svg">
<path d="M28 16.1167C28 13.9067 26.21 12.1167 24 12.1167C21.79 12.1167 20 13.9067 20 16.1167C20 18.3267 21.79 20.1167 24 20.1167C26.21 20.1167 28 18.3267 28 16.1167ZM22 16.1167C22 15.0167 22.9 14.1167 24 14.1167C25.1 14.1167 26 15.0167 26 16.1167C26 17.2167 25.1 18.1167 24 18.1167C22.9 18.1167 22 17.2167 22 16.1167Z" fill="#6DB863"/>
<path d="M3.99996 41.1167H44C44.35 41.1167 44.67 40.9367 44.85 40.6367C45.03 40.3367 45.05 39.9767 44.89 39.6667L36.89 23.6667C36.72 23.3267 36.38 23.1167 36 23.1167H29.77C31.25 19.8467 32 17.4867 32 16.1167C32 11.7067 28.41 8.1167 24 8.1167C19.59 8.1167 16 11.7067 16 16.1167C16 17.4867 16.75 19.8467 18.23 23.1167H12C11.62 23.1167 11.28 23.3267 11.11 23.6667L3.10996 39.6667C2.94996 39.9767 2.96996 40.3467 3.14996 40.6367C3.32996 40.9367 3.64996 41.1167 3.99996 41.1167ZM18 16.1167C18 12.8067 20.69 10.1167 24 10.1167C27.31 10.1167 30 12.8067 30 16.1167C30 18.4067 26.98 24.6767 24 30.0767C21.02 24.6767 18 18.4067 18 16.1167ZM12.62 25.1167H19.17C21.04 28.9767 23.05 32.4667 23.14 32.6167C23.5 33.2367 24.52 33.2367 24.87 32.6167C24.96 32.4667 26.97 28.9767 28.84 25.1167H35.39L42.39 39.1167H5.61996L12.62 25.1167Z" fill="#6DB863"/>
</svg>
