<svg width="47" height="47" viewBox="0 0 47 47" fill="none" xmlns="http://www.w3.org/2000/svg">
<path d="M38.3833 7.91164H27.8083L23.5 4.62164L19.1917 7.98998H8.61668V16.2933L4.70001 19.3483V42.4566H42.3V19.27L38.3833 16.215V7.91164ZM23.5 6.57998L25.2233 7.91164H21.7767L23.5 6.57998ZM36.8167 9.47831V22.0116L23.5 31.255L10.1833 22.0116V9.47831H36.8167ZM8.61668 20.915L6.81501 19.6616L8.61668 18.2516V20.915ZM6.26668 40.8116V21.15L23.5 33.135L40.7333 21.15V40.8116H6.26668ZM40.185 19.6616L38.3833 20.915V18.2516L40.185 19.6616Z" fill="#6DB863"/>
<path d="M32.9 11.8283H13.3167V13.395H32.9V11.8283Z" fill="#6DB863"/>
<path d="M32.9 16.5283H13.3167V18.095H32.9V16.5283Z" fill="#6DB863"/>
<path d="M32.9 21.2283H13.3167V22.795H32.9V21.2283Z" fill="#6DB863"/>
</svg>
