<svg width="58" height="58" viewBox="0 0 58 58" fill="none" xmlns="http://www.w3.org/2000/svg">
<path d="M23.3334 41.7498L40.3334 28.9998L23.3334 16.2498V41.7498ZM29 0.666504C13.3459 0.666504 0.666687 13.3457 0.666687 28.9998C0.666687 44.654 13.3459 57.3332 29 57.3332C44.6542 57.3332 57.3334 44.654 57.3334 28.9998C57.3334 13.3457 44.6542 0.666504 29 0.666504ZM29 51.6665C16.505 51.6665 6.33335 41.4948 6.33335 28.9998C6.33335 16.5048 16.505 6.33317 29 6.33317C41.495 6.33317 51.6667 16.5048 51.6667 28.9998C51.6667 41.4948 41.495 51.6665 29 51.6665Z" fill="white"/>
</svg>
