<svg width="48" height="49" viewBox="0 0 48 49" fill="none" xmlns="http://www.w3.org/2000/svg">
<g clip-path="url(#clip0_458_377)">
<path d="M24 29.6167C24.5523 29.6167 25 29.169 25 28.6167C25 28.0644 24.5523 27.6167 24 27.6167C23.4477 27.6167 23 28.0644 23 28.6167C23 29.169 23.4477 29.6167 24 29.6167Z" stroke="#6DB863" stroke-width="2" stroke-linecap="round" stroke-linejoin="round"/>
<path d="M24 15.6167V28.6167L31 35.6167" stroke="#6DB863" stroke-width="2" stroke-linecap="round" stroke-linejoin="round"/>
<path d="M24 47.6167C34.4934 47.6167 43 39.1101 43 28.6167C43 18.1233 34.4934 9.6167 24 9.6167C13.5066 9.6167 5 18.1233 5 28.6167C5 39.1101 13.5066 47.6167 24 47.6167Z" stroke="#6DB863" stroke-width="2" stroke-linecap="round" stroke-linejoin="round"/>
<path d="M27 9.8167V5.6167H29V1.6167H19V5.6167H21V9.8167M39.2 17.4167L43 13.6167L39 9.6167L35.2 13.4167M12.8 13.4167L9 9.6167L5 13.6167L8.8 17.4167" stroke="#6DB863" stroke-width="2" stroke-linecap="round" stroke-linejoin="round"/>
</g>
<defs>
<clipPath id="clip0_458_377">
<rect width="48" height="48" fill="white" transform="translate(0 0.616699)"/>
</clipPath>
</defs>
</svg>
