<svg width="24" height="24" viewBox="0 0 24 24" fill="none" xmlns="http://www.w3.org/2000/svg">
    <path
        d="M12 7.5C11.11 7.5 10.24 7.76392 9.49994 8.25839C8.75991 8.75285 8.18314 9.45566 7.84254 10.2779C7.50195 11.1002 7.41283 12.005 7.58647 12.8779C7.7601 13.7508 8.18869 14.5526 8.81802 15.182C9.44736 15.8113 10.2492 16.2399 11.1221 16.4135C11.995 16.5872 12.8998 16.4981 13.7221 16.1575C14.5443 15.8169 15.2471 15.2401 15.7416 14.5001C16.2361 13.76 16.5 12.89 16.5 12C16.4987 10.8069 16.0241 9.66311 15.1805 8.81948C14.3369 7.97585 13.1931 7.50132 12 7.5ZM12 15.5C11.3078 15.5 10.6311 15.2947 10.0555 14.9101C9.47993 14.5256 9.03133 13.9789 8.76642 13.3394C8.50152 12.6999 8.4322 11.9961 8.56725 11.3172C8.7023 10.6382 9.03564 10.0146 9.52513 9.52513C10.0146 9.03564 10.6383 8.7023 11.3172 8.56725C11.9961 8.4322 12.6999 8.50151 13.3394 8.76642C13.9789 9.03133 14.5256 9.47993 14.9101 10.0555C15.2947 10.6311 15.5 11.3078 15.5 12C15.4989 12.9279 15.1298 13.8175 14.4736 14.4736C13.8175 15.1298 12.9279 15.4989 12 15.5Z"
        fill="white" />
    <path
        d="M12 5C6.3496 5 1 10.0938 1 12C1 13.9062 6.3496 19 12 19C17.6504 19 23 13.9062 23 12C23 10.0938 17.6504 5 12 5ZM12 18C6.61425 18 2 13.1391 2 12C2 10.8608 6.61425 6 12 6C17.3857 6 22 10.8608 22 12C22 13.1391 17.3857 18 12 18Z"
        fill="white" />
</svg>
    