<svg width="56" height="56" viewBox="0 0 56 56" fill="none" xmlns="http://www.w3.org/2000/svg">
<g clip-path="url(#clip0_564_1422)">
<path d="M26.8334 28C31.3437 28 35.0001 24.3437 35.0001 19.8334C35.0001 15.323 31.3437 11.6667 26.8334 11.6667C22.3231 11.6667 18.6667 15.323 18.6667 19.8334C18.6667 24.3437 22.3231 28 26.8334 28Z" fill="#3C8951"/>
<path d="M43.1666 32.6667C46.3882 32.6667 48.9999 30.055 48.9999 26.8333C48.9999 23.6117 46.3882 21 43.1666 21C39.9449 21 37.3333 23.6117 37.3333 26.8333C37.3333 30.055 39.9449 32.6667 43.1666 32.6667Z" fill="#3C8951"/>
<path d="M10.6656 32.6667C13.8873 32.6667 16.4989 30.055 16.4989 26.8333C16.4989 23.6117 13.8873 21 10.6656 21C7.44395 21 4.83228 23.6117 4.83228 26.8333C4.83228 30.055 7.44395 32.6667 10.6656 32.6667Z" fill="#3C8951"/>
<path d="M26.8333 30.3333C22.8124 30.3383 18.9576 31.9378 16.1143 34.781C13.2711 37.6242 11.6716 41.479 11.6667 45.5C11.6667 45.8094 11.7896 46.1061 12.0084 46.3249C12.2272 46.5437 12.5239 46.6666 12.8333 46.6666H40.8333C41.1428 46.6666 41.4395 46.5437 41.6583 46.3249C41.8771 46.1061 42 45.8094 42 45.5C42 37.1373 35.196 30.3333 26.8333 30.3333ZM12.677 35.252C11.9621 35.0921 11.2325 35.0076 10.5 35C7.71618 35.0031 5.04725 36.1103 3.07879 38.0788C1.11033 40.0472 0.003088 42.7162 0 45.5C0 45.8094 0.122916 46.1061 0.341709 46.3249C0.560501 46.5437 0.857247 46.6666 1.16667 46.6666H9.548C9.40982 46.293 9.3372 45.8983 9.33333 45.5C9.33333 41.671 10.584 38.136 12.677 35.252ZM43.1667 35C42.4293 35 41.7037 35.1003 40.9897 35.252C43.1615 38.2276 44.3324 41.8161 44.3333 45.5C44.3333 45.9106 44.2493 46.3003 44.1187 46.6666H52.5C52.8094 46.6666 53.1062 46.5437 53.325 46.3249C53.5438 46.1061 53.6667 45.8094 53.6667 45.5C53.6667 39.711 48.9557 35 43.1667 35Z" fill="#3C8951"/>
</g>
<defs>
<clipPath id="clip0_564_1422">
<rect width="56" height="56" fill="white"/>
</clipPath>
</defs>
</svg>
