<svg width="58" height="58" viewBox="0 0 58 58" fill="none" xmlns="http://www.w3.org/2000/svg">
<g clip-path="url(#clip0_565_1436)">
<path d="M9.66663 38.6666C9.66663 40.8054 10.6091 42.7025 12.0833 44.0316V48.3333C12.0833 49.6625 13.1708 50.75 14.5 50.75H16.9166C17.5576 50.75 18.1723 50.4954 18.6255 50.0422C19.0787 49.5889 19.3333 48.9743 19.3333 48.3333V45.9166H38.6666V48.3333C38.6666 48.9743 38.9212 49.5889 39.3745 50.0422C39.8277 50.4954 40.4424 50.75 41.0833 50.75H43.5C44.8291 50.75 45.9166 49.6625 45.9166 48.3333V44.0316C47.3908 42.7025 48.3333 40.8054 48.3333 38.6666V14.5C48.3333 6.04165 39.6816 4.83331 29 4.83331C18.3183 4.83331 9.66663 6.04165 9.66663 14.5V38.6666ZM18.125 41.0833C16.1191 41.0833 14.5 39.4641 14.5 37.4583C14.5 35.4525 16.1191 33.8333 18.125 33.8333C20.1308 33.8333 21.75 35.4525 21.75 37.4583C21.75 39.4641 20.1308 41.0833 18.125 41.0833ZM39.875 41.0833C37.8691 41.0833 36.25 39.4641 36.25 37.4583C36.25 35.4525 37.8691 33.8333 39.875 33.8333C41.8808 33.8333 43.5 35.4525 43.5 37.4583C43.5 39.4641 41.8808 41.0833 39.875 41.0833ZM43.5 26.5833H14.5V14.5H43.5V26.5833Z" fill="#3C8951"/>
</g>
<defs>
<clipPath id="clip0_565_1436">
<rect width="58" height="58" fill="white"/>
</clipPath>
</defs>
</svg>
