<svg width="56" height="56" viewBox="0 0 56 56" fill="none" xmlns="http://www.w3.org/2000/svg">
<g clip-path="url(#clip0_565_1439)">
<path d="M4 32H58C58.5417 32 59.0104 32.1979 59.4062 32.5938C59.8021 32.9896 60 33.4583 60 34V48H52V40H4V48H-4V10C-4 9.45833 -3.80208 8.98958 -3.40625 8.59375C-3.01042 8.19792 -2.54167 8 -2 8H2C2.54167 8 3.01042 8.19792 3.40625 8.59375C3.80208 8.98958 4 9.45833 4 10V32ZM22 22C22 19.7917 21.2188 17.9062 19.6562 16.3438C18.0938 14.7812 16.2083 14 14 14C11.7917 14 9.90625 14.7812 8.34375 16.3438C6.78125 17.9062 6 19.7917 6 22C6 24.2083 6.78125 26.0938 8.34375 27.6562C9.90625 29.2188 11.7917 30 14 30C16.2083 30 18.0938 29.2188 19.6562 27.6562C21.2188 26.0938 22 24.2083 22 22ZM60 30V28C60 24.6875 58.8281 21.8594 56.4844 19.5156C54.1406 17.1719 51.3125 16 48 16H26C25.4583 16 24.9896 16.1979 24.5938 16.5938C24.1979 16.9896 24 17.4583 24 18V30H60Z" fill="#3C8951"/>
</g>
<defs>
<clipPath id="clip0_565_1439">
<rect width="56" height="56" fill="white"/>
</clipPath>
</defs>
</svg>
