<svg width="67" height="67" viewBox="0 0 67 67" xmlns="http://www.w3.org/2000/svg">
    <path
        d="M64.8199 63.0799H59.5999V16.0999C59.6258 15.7194 59.5232 15.3411 59.3087 15.0257C59.0942 14.7102 58.7802 14.4758 58.4167 14.3599L45.6799 9.03554V63.0799H42.1999V2.17994C42.1999 1.71846 42.0166 1.27589 41.6903 0.949576C41.364 0.623263 40.9214 0.439941 40.4599 0.439941H9.13994C8.67846 0.439941 8.23589 0.623263 7.90958 0.949576C7.58326 1.27589 7.39994 1.71846 7.39994 2.17994V63.0799H2.17994C1.71846 63.0799 1.27589 63.2633 0.949576 63.5896C0.623263 63.9159 0.439941 64.3585 0.439941 64.8199C0.439941 65.2814 0.623263 65.724 0.949576 66.0503C1.27589 66.3766 1.71846 66.5599 2.17994 66.5599H64.8199C65.2814 66.5599 65.724 66.3766 66.0503 66.0503C66.3766 65.724 66.5599 65.2814 66.5599 64.8199C66.5599 64.3585 66.3766 63.9159 66.0503 63.5896C65.724 63.2633 65.2814 63.0799 64.8199 63.0799ZM50.8999 21.3199H54.3799C54.8414 21.3199 55.284 21.5033 55.6103 21.8296C55.9366 22.1559 56.1199 22.5985 56.1199 23.0599C56.111 23.5186 55.9249 23.956 55.6005 24.2805C55.2761 24.6049 54.8386 24.791 54.3799 24.7999H50.8999C50.4413 24.791 50.0038 24.6049 49.6794 24.2805C49.355 23.956 49.1689 23.5186 49.1599 23.0599C49.1599 22.5985 49.3433 22.1559 49.6696 21.8296C49.9959 21.5033 50.4385 21.3199 50.8999 21.3199ZM50.8999 31.7599H54.3799C54.8414 31.7599 55.284 31.9433 55.6103 32.2696C55.9366 32.5959 56.1199 33.0385 56.1199 33.4999C56.1199 33.9614 55.9366 34.404 55.6103 34.7303C55.284 35.0566 54.8414 35.2399 54.3799 35.2399H50.8999C50.4385 35.2399 49.9959 35.0566 49.6696 34.7303C49.3433 34.404 49.1599 33.9614 49.1599 33.4999C49.1599 33.0385 49.3433 32.5959 49.6696 32.2696C49.9959 31.9433 50.4385 31.7599 50.8999 31.7599ZM50.8999 42.1999H54.3799C54.8386 42.2089 55.2761 42.395 55.6005 42.7194C55.9249 43.0438 56.111 43.4813 56.1199 43.9399C56.1199 44.4014 55.9366 44.844 55.6103 45.1703C55.284 45.4966 54.8414 45.6799 54.3799 45.6799H50.8999C50.4385 45.6799 49.9959 45.4966 49.6696 45.1703C49.3433 44.844 49.1599 44.4014 49.1599 43.9399C49.1689 43.4813 49.355 43.0438 49.6794 42.7194C50.0038 42.395 50.4413 42.2089 50.8999 42.1999ZM50.8999 52.6399H54.3799C54.8414 52.6399 55.284 52.8233 55.6103 53.1496C55.9366 53.4759 56.1199 53.9185 56.1199 54.3799C56.1199 54.8414 55.9366 55.284 55.6103 55.6103C55.284 55.9366 54.8414 56.1199 54.3799 56.1199H50.8999C50.4385 56.1199 49.9959 55.9366 49.6696 55.6103C49.3433 55.284 49.1599 54.8414 49.1599 54.3799C49.1599 53.9185 49.3433 53.4759 49.6696 53.1496C49.9959 52.8233 50.4385 52.6399 50.8999 52.6399ZM28.2799 10.8799H31.7599C32.2214 10.8799 32.664 11.0633 32.9903 11.3896C33.3166 11.7159 33.4999 12.1585 33.4999 12.6199C33.4999 13.0814 33.3166 13.524 32.9903 13.8503C32.664 14.1766 32.2214 14.3599 31.7599 14.3599H28.2799C27.8185 14.3599 27.3759 14.1766 27.0496 13.8503C26.7233 13.524 26.5399 13.0814 26.5399 12.6199C26.5399 12.1585 26.7233 11.7159 27.0496 11.3896C27.3759 11.0633 27.8185 10.8799 28.2799 10.8799ZM28.2799 21.3199H31.7599C32.2214 21.3199 32.664 21.5033 32.9903 21.8296C33.3166 22.1559 33.4999 22.5985 33.4999 23.0599C33.4999 23.5214 33.3166 23.964 32.9903 24.2903C32.664 24.6166 32.2214 24.7999 31.7599 24.7999H28.2799C27.8185 24.7999 27.3759 24.6166 27.0496 24.2903C26.7233 23.964 26.5399 23.5214 26.5399 23.0599C26.5399 22.5985 26.7233 22.1559 27.0496 21.8296C27.3759 21.5033 27.8185 21.3199 28.2799 21.3199ZM28.2799 31.7599H31.7599C32.2214 31.7599 32.664 31.9433 32.9903 32.2696C33.3166 32.5959 33.4999 33.0385 33.4999 33.4999C33.4999 33.9614 33.3166 34.404 32.9903 34.7303C32.664 35.0566 32.2214 35.2399 31.7599 35.2399H28.2799C27.8185 35.2399 27.3759 35.0566 27.0496 34.7303C26.7233 34.404 26.5399 33.9614 26.5399 33.4999C26.5399 33.0385 26.7233 32.5959 27.0496 32.2696C27.3759 31.9433 27.8185 31.7599 28.2799 31.7599ZM28.2799 42.1999H31.7599C32.2214 42.1999 32.664 42.3833 32.9903 42.7096C33.3166 43.0359 33.4999 43.4785 33.4999 43.9399C33.4999 44.4014 33.3166 44.844 32.9903 45.1703C32.664 45.4966 32.2214 45.6799 31.7599 45.6799H28.2799C27.8185 45.6799 27.3759 45.4966 27.0496 45.1703C26.7233 44.844 26.5399 44.4014 26.5399 43.9399C26.5399 43.4785 26.7233 43.0359 27.0496 42.7096C27.3759 42.3833 27.8185 42.1999 28.2799 42.1999ZM17.6311 10.8799H21.3199C21.7814 10.8799 22.224 11.0633 22.5503 11.3896C22.8766 11.7159 23.0599 12.1585 23.0599 12.6199C23.0599 13.0814 22.8766 13.524 22.5503 13.8503C22.224 14.1766 21.7814 14.3599 21.3199 14.3599H17.8399C17.3785 14.3599 16.9359 14.1766 16.6096 13.8503C16.2833 13.524 16.0999 13.0814 16.0999 12.6199C16.0999 12.1585 16.2833 11.7159 16.6096 11.3896C16.9359 11.0633 17.3785 10.8799 17.8399 10.8799H17.6311ZM17.6311 21.3199H21.3199C21.7814 21.3199 22.224 21.5033 22.5503 21.8296C22.8766 22.1559 23.0599 22.5985 23.0599 23.0599C23.0599 23.5214 22.8766 23.964 22.5503 24.2903C22.224 24.6166 21.7814 24.7999 21.3199 24.7999H17.8399C17.3785 24.7999 16.9359 24.6166 16.6096 24.2903C16.2833 23.964 16.0999 23.5214 16.0999 23.0599C16.0999 22.5985 16.2833 22.1559 16.6096 21.8296C16.9359 21.5033 17.3785 21.3199 17.8399 21.3199H17.6311ZM17.6311 31.7599H21.3199C21.7814 31.7599 22.224 31.9433 22.5503 32.2696C22.8766 32.5959 23.0599 33.0385 23.0599 33.4999C23.0599 33.9614 22.8766 34.404 22.5503 34.7303C22.224 35.0566 21.7814 35.2399 21.3199 35.2399H17.8399C17.3785 35.2399 16.9359 35.0566 16.6096 34.7303C16.2833 34.404 16.0999 33.9614 16.0999 33.4999C16.0999 33.0385 16.2833 32.5959 16.6096 32.2696C16.9359 31.9433 17.3785 31.7599 17.8399 31.7599H17.6311ZM17.6311 42.1999H21.3199C21.7814 42.1999 22.224 42.3833 22.5503 42.7096C22.8766 43.0359 23.0599 43.4785 23.0599 43.9399C23.0599 44.4014 22.8766 44.844 22.5503 45.1703C22.224 45.4966 21.7814 45.6799 21.3199 45.6799H17.8399C17.3785 45.6799 16.9359 45.4966 16.6096 45.1703C16.2833 44.844 16.0999 44.4014 16.0999 43.9399C16.0999 43.4785 16.2833 43.0359 16.6096 42.7096C16.9359 42.3833 17.3785 42.1999 17.8399 42.1999H17.6311ZM26.5399 63.0799V56.1199H23.0599V63.0799H19.5799V54.2755C19.6066 53.8324 19.8016 53.4162 20.1251 53.1121C20.4485 52.8081 20.876 52.6391 21.3199 52.6399H28.2799C28.7414 52.6399 29.184 52.8233 29.5103 53.1496C29.8366 53.4759 30.0199 53.9185 30.0199 54.3799V63.0799H26.5399Z"
         />
</svg>