<svg width="74" height="75" viewBox="0 0 74 75" fill="none" xmlns="http://www.w3.org/2000/svg">
<path d="M39.1998 42.9016C38.4024 43.8768 34.9536 44.6372 33.8315 45.1062C33.1788 45.3246 32.4781 45.3567 31.8081 45.199C31.1381 45.0412 30.5254 44.6999 30.0386 44.2132C29.5518 43.7266 29.2103 43.1139 29.0524 42.444C28.8945 41.774 28.9264 41.0734 29.1446 40.4205C29.6198 39.2849 30.3703 35.8608 31.3504 35.051L33.8377 32.565L33.797 32.5625C22.2765 32.4082 22.2765 49.9981 33.797 49.8425C40.1886 49.9289 43.0289 44.5532 42.3265 39.775L39.1998 42.9016ZM62.4308 23.9244L62.4234 23.9231L58.5351 23.5775L52.8125 29.2976C60.5644 42.3141 54.2283 63.0639 33.797 63.4219C4.1695 62.8985 4.17444 19.5041 33.797 18.9844C37.6092 18.9956 41.3644 19.9106 44.7545 21.6543L50.6832 15.7293L50.345 11.9201C45.2302 9.27319 39.5572 7.88635 33.7982 7.87501C-10.6368 8.6539 -10.6442 73.7462 33.797 74.5313C64.1404 73.9992 73.745 43.488 62.6468 23.9342C62.5752 23.9318 62.5036 23.9293 62.4308 23.9244ZM72.6884 9.12296L65.5118 8.74525L65.1291 1.56736C65.1127 1.3311 65.0292 1.10443 64.8884 0.914033C64.7476 0.723631 64.5553 0.577419 64.3342 0.492606C64.1131 0.407793 63.8724 0.387908 63.6403 0.435293C63.4083 0.482677 63.1946 0.595358 63.0245 0.760074L53.1532 10.6375C53.0259 10.7653 52.9282 10.9193 52.8667 11.0888C52.8053 11.2584 52.7818 11.4393 52.7977 11.6189L53.2445 16.6613L33.0971 36.7964C32.9615 36.9315 32.8592 37.0963 32.7984 37.2778L31.4862 41.2031C31.4166 41.4206 31.4083 41.653 31.4621 41.8748C31.5159 42.0967 31.6297 42.2995 31.7911 42.4609C31.9526 42.6224 32.1554 42.7362 32.3772 42.79C32.5991 42.8438 32.8315 42.8354 33.0489 42.7659L36.9742 41.4525C37.1556 41.392 37.3204 41.2901 37.4557 41.155L57.6056 21.0149L62.6418 21.4642C62.822 21.4801 63.0035 21.4563 63.1735 21.3945C63.3435 21.3326 63.4978 21.2343 63.6256 21.1063L73.4957 11.2288C73.6608 11.0586 73.7739 10.8447 73.8214 10.6124C73.869 10.3801 73.8491 10.139 73.7641 9.91764C73.6791 9.69625 73.5325 9.5038 73.3417 9.363C73.1509 9.22219 72.925 9.1389 72.6884 9.12296Z" fill="#004185"/>
</svg>
