<svg width="92" height="64" viewBox="0 0 92 64" xmlns="http://www.w3.org/2000/svg">
    <path
        d="M46 0.75C25.1666 0.75 7.37496 13.7083 0.166626 32C7.37496 50.2917 25.1666 63.25 46 63.25C66.8541 63.25 84.625 50.2917 91.8333 32C84.625 13.7083 66.8541 0.75 46 0.75ZM46 52.8333C34.5 52.8333 25.1666 43.5 25.1666 32C25.1666 20.5 34.5 11.1667 46 11.1667C57.5 11.1667 66.8333 20.5 66.8333 32C66.8333 43.5 57.5 52.8333 46 52.8333ZM46 19.5C39.1041 19.5 33.5 25.1042 33.5 32C33.5 38.8958 39.1041 44.5 46 44.5C52.8958 44.5 58.5 38.8958 58.5 32C58.5 25.1042 52.8958 19.5 46 19.5Z"
    />
</svg>