<svg width="198" height="83" viewBox="0 0 198 83" fill="none" xmlns="http://www.w3.org/2000/svg">
<path d="M198.312 51.5977H78.4268V52.1891H198.312V51.5977Z" fill="#EEEEEE"/>
<mask id="mask0_458_420" style="mask-type:luminance" maskUnits="userSpaceOnUse" x="0" y="0" width="199" height="83">
<path d="M199 0H0V83H199V0Z" fill="white"/>
</mask>
<g mask="url(#mask0_458_420)">
<path d="M86.7556 41.5668C86.6804 41.6899 86.5891 41.8826 86.4951 42.1261C86.3663 42.5811 86.1622 42.8969 85.9018 43.0521C85.7541 43.1404 85.4185 43.2635 84.8815 43.4562C84.5646 43.5606 84.2881 43.6141 84.0088 43.6141C82.9509 43.6141 82.4301 43.3518 82.4301 42.8273C82.4301 42.5998 82.4676 42.391 82.5589 42.1636C82.9107 41.2376 83.6544 40.0975 84.7875 38.7861L85.9018 39.6613C86.3663 40.0466 86.6428 40.3785 86.6992 40.6408C86.7368 40.7987 86.7556 40.9914 86.7556 41.2001V41.5668ZM85.9018 41.8638C85.5473 41.2162 85.0291 40.6568 84.3606 40.2179C83.7108 40.9539 83.3967 41.3901 83.3967 41.5132C83.3967 41.9334 83.7323 42.1448 84.3794 42.1448C84.7123 42.1448 85.2144 42.0913 85.9018 41.9869V41.8638Z" fill="white"/>
<path d="M91.21 38.3795C91.1536 38.5374 91.0248 38.7462 90.8207 38.9737C90.375 38.9924 89.6876 39.2359 88.7613 39.7096L88.6861 39.6909C88.7425 39.4982 88.9842 39.252 89.4299 38.9897C89.2446 38.9362 88.9654 38.8505 88.6136 38.7087C88.5572 38.6739 88.5385 38.6204 88.5385 38.5695C88.5385 38.2537 88.7049 37.9219 89.0217 37.59C89.3547 37.2582 89.6903 37.0815 90.0421 37.0815C90.3938 37.0815 90.5817 37.2047 90.5817 37.4482C90.5817 37.4295 90.4878 37.5874 90.2837 37.9379C90.1897 37.8148 90.0259 37.7265 89.8004 37.6757C89.7816 37.6569 89.744 37.6569 89.7064 37.6569C89.6125 37.6569 89.5024 37.6917 89.3896 37.7453C89.3332 37.764 89.2231 37.8336 89.0567 37.9379L88.9815 38.0423C89.0755 38.2511 89.3144 38.3581 89.7225 38.3742H91.2073L91.21 38.3795Z" fill="white"/>
<path d="M91.7283 45.0488C91.1537 46.1514 90.4287 46.6947 89.5937 46.6947C89.2044 46.6947 88.611 46.5903 87.8109 46.3789C87.0134 46.1862 86.5489 46.0122 86.3824 45.8891C86.3824 45.75 86.4764 45.6777 86.6429 45.6777C86.6617 45.6777 86.9033 45.7125 87.349 45.8008C87.7948 45.8891 88.0364 45.9239 88.074 45.9239C88.5761 45.9239 89.2984 45.5921 90.2462 44.9096C91.2853 44.1737 91.8062 43.5099 91.8062 42.8971C91.8062 42.7392 91.7686 42.5813 91.7122 42.4261H91.6746C91.3202 43.3547 90.9121 43.617 90.1522 43.617C89.7253 43.617 89.4272 43.4939 89.2608 43.2504C89.1507 43.0577 89.0943 42.7606 89.0943 42.3404V41.9203C89.1319 41.658 89.3547 41.2539 89.7441 40.6945C90.2086 40.0281 90.6355 39.6963 91.0248 39.6963C91.2665 39.6963 91.5269 39.8702 91.8035 40.2396C91.9699 40.5018 92.0988 40.7293 92.1928 40.9568L92.3432 41.3957C92.4371 41.7115 92.472 41.9898 92.472 42.2548C92.472 43.1808 92.2304 44.1094 91.7283 45.0542M90.9872 41.4144C90.8396 41.2913 90.6704 41.2405 90.5039 41.2405C90.3938 41.2405 90.2247 41.294 90.0206 41.3797C89.779 41.5028 89.6501 41.6419 89.6501 41.7998C89.6501 41.9229 89.7978 42.0086 90.077 42.0969C90.2811 42.1504 90.4287 42.1852 90.5603 42.1852C90.7644 42.1852 90.9872 42.1344 91.2477 42.0112C91.2477 41.7677 91.1537 41.575 90.9872 41.4171" fill="white"/>
<path d="M96.4271 43.6142H94.3301L93.6803 37.1377C93.6803 37.0842 93.7528 36.9985 93.8844 36.8406C94.1072 36.5784 94.3865 36.2813 94.7382 35.9468L94.8671 37.1886C95.0899 39.4634 95.2752 41.0397 95.4041 41.9148C95.4229 41.9683 95.4793 42.0192 95.5705 42.0379C95.6645 42.0567 95.9787 42.2119 96.1102 42.2119H96.4271V43.6116V43.6142Z" fill="white"/>
<path d="M100.916 43.6144H99.8585C99.8397 43.6144 99.7645 43.5957 99.6356 43.5448C99.4316 43.4565 99.2275 43.213 99.0422 42.7741L98.5616 43.6144H96.0565V42.2147H98.8409C98.9348 42.0916 98.9697 41.8989 98.951 41.6367C98.9322 41.3744 98.951 41.2004 99.0073 41.1121C99.1013 40.9007 99.4155 40.534 99.99 40.0095V40.9007C99.99 40.9355 99.9713 41.0586 99.9337 41.2861C99.8961 41.4975 99.8773 41.6179 99.8773 41.6367C99.8773 42.022 100.119 42.2147 100.618 42.2147H100.914V43.6144H100.916ZM99.6544 38.2405C99.5255 38.3636 99.2651 38.5376 98.8543 38.7998C98.7254 38.8346 98.6878 38.8534 98.7066 38.8534C98.6502 38.8534 98.465 38.749 98.1669 38.5563C97.8152 38.3288 97.6487 38.1522 97.6487 38.0478C97.6487 37.9943 97.6863 37.9247 97.7803 37.8364C98.0595 37.5554 98.2985 37.3466 98.5052 37.2075C98.5992 37.1539 98.6529 37.1191 98.7093 37.1191C98.7657 37.1191 98.951 37.2583 99.2651 37.5554C99.6007 37.8364 99.7672 37.9916 99.7672 38.0451C99.7672 38.0987 99.7296 38.1682 99.6571 38.2378" fill="white"/>
<path d="M104.667 43.6142H100.583V42.2145C102.941 42.1958 104.109 42.1958 104.109 42.2145C103.942 41.7408 103.644 41.1815 103.182 40.5526L103.942 39.3804C104.592 40.1324 104.928 40.8496 104.928 41.5321C104.928 41.7944 104.834 42.4955 104.667 43.6142ZM103.462 46.3788C103.201 46.5527 103.054 46.641 102.997 46.641C102.884 46.641 102.533 46.4136 101.921 45.9586C101.939 45.8703 102.068 45.7151 102.31 45.4501C102.551 45.2039 102.718 45.0835 102.812 45.0835C102.85 45.0835 103.035 45.2226 103.349 45.4849C103.685 45.7472 103.851 45.9051 103.851 45.9586C103.851 46.063 103.722 46.2021 103.462 46.3788Z" fill="white"/>
<path d="M107.583 35.3713C107.044 35.3713 106.507 35.5827 105.932 36.0189H105.784V35.9146C105.784 35.8263 105.97 35.671 106.321 35.4061L105.561 35.1438C105.543 35.0207 105.58 34.8815 105.655 34.6888C105.822 34.2339 106.136 33.9529 106.601 33.8298C106.638 33.811 106.713 33.811 106.805 33.811C107.119 33.811 107.269 33.9154 107.269 34.1081C107.269 34.0894 107.175 34.2312 107.009 34.5283C106.974 34.4587 106.88 34.3891 106.713 34.3008C106.695 34.2821 106.638 34.2821 106.584 34.2821C106.362 34.2821 105.935 34.44 105.935 34.5979C105.935 34.7558 106.268 34.8601 106.917 34.8949C106.861 34.8949 107.197 34.8601 107.865 34.8601C107.809 34.9832 107.717 35.1411 107.586 35.3659" fill="white"/>
<path d="M107.991 41.0048C107.991 42.0379 107.731 42.8943 107.229 43.6115L106.541 38.2028C106.541 38.1145 106.692 37.8174 107.006 37.3437C107.285 36.9423 107.489 36.6452 107.618 36.4873L107.989 41.0021L107.991 41.0048Z" fill="white"/>
<path d="M112.873 45.0488C112.298 46.1514 111.573 46.6947 110.738 46.6947C110.349 46.6947 109.755 46.5903 108.955 46.3789C108.158 46.1862 107.693 46.0122 107.527 45.8891C107.527 45.75 107.621 45.6777 107.787 45.6777C107.806 45.6777 108.045 45.7125 108.493 45.8008C108.939 45.8891 109.181 45.9239 109.218 45.9239C109.721 45.9239 110.443 45.5921 111.391 44.9096C112.43 44.1737 112.951 43.5099 112.951 42.8971C112.951 42.7392 112.913 42.5813 112.857 42.4261H112.819C112.465 43.3547 112.056 43.617 111.297 43.617C110.87 43.617 110.572 43.4939 110.405 43.2504C110.295 43.0577 110.239 42.7606 110.239 42.3404V41.9203C110.276 41.658 110.499 41.2539 110.888 40.6945C111.353 40.0281 111.78 39.6963 112.169 39.6963C112.411 39.6963 112.671 39.8702 112.948 40.2396C113.114 40.5018 113.243 40.7293 113.337 40.9568L113.488 41.3957C113.582 41.7115 113.616 41.9898 113.616 42.2548C113.616 43.1808 113.375 44.1094 112.873 45.0542M112.132 41.4144C111.984 41.2913 111.815 41.2405 111.648 41.2405C111.538 41.2405 111.369 41.294 111.165 41.3797C110.923 41.5028 110.795 41.6419 110.795 41.7998C110.795 41.9229 110.942 42.0086 111.221 42.0969C111.425 42.1504 111.573 42.1852 111.705 42.1852C111.909 42.1852 112.132 42.1344 112.392 42.0112C112.392 41.7677 112.298 41.575 112.132 41.4171" fill="white"/>
<path d="M125.293 39.5543C125.127 39.9905 124.979 40.4107 124.81 40.78C124.754 40.5873 124.663 40.1859 124.364 40.044C124.308 40.0092 124.198 39.9905 124.048 39.9905C123.712 39.9905 123.269 40.1484 122.711 40.4803C122.117 40.8308 121.819 41.144 121.819 41.425C121.819 41.3902 121.838 41.425 121.857 41.5294C121.967 41.722 122.114 41.8264 122.284 41.8451C122.692 41.8987 123.248 41.9843 123.935 42.1074C124.252 42.1957 124.456 42.3536 124.528 42.5436C124.566 42.632 124.585 42.6828 124.585 42.7363C124.585 42.8247 124.55 42.9826 124.491 43.2261C124.418 43.558 124.381 43.7346 124.362 43.7506C124.305 43.9781 124.195 44.1895 124.026 44.417C123.954 44.5401 123.599 44.7489 122.987 45.0647C121.741 45.7123 120.554 45.9238 119.83 45.9238C119.07 45.9238 118.42 45.7498 117.918 45.4153C117.324 45.0299 117.026 44.4866 117.026 43.7881C117.026 43.2796 117.118 42.7042 117.306 42.0566C117.51 41.4089 117.733 40.9192 117.993 40.5686H118.122C118.178 40.6221 118.197 40.6917 118.197 40.7773C118.197 40.9004 118.122 41.2323 117.955 41.7916C117.789 42.351 117.714 42.7363 117.714 42.929C117.714 43.4723 118.012 43.8925 118.624 44.1895C119.051 44.3983 119.534 44.5053 120.052 44.5053C120.571 44.5053 121.465 44.2966 122.3 44.1387C122.802 44.0156 123.229 43.8416 123.599 43.6142C123.599 43.5606 123.468 43.491 123.301 43.4402C122.949 43.4054 122.579 43.3706 122.225 43.3519C121.798 43.2984 121.446 43.194 121.148 43.0548C121.038 43.004 120.944 42.9317 120.869 42.8113C120.85 42.7577 120.831 42.6373 120.831 42.4607C120.831 42.268 120.869 42.0753 120.944 41.8666C121.371 40.7987 122.112 39.8701 123.154 39.0833C123.395 38.8906 123.599 38.7675 123.803 38.7139C124.064 38.6256 124.305 38.5908 124.547 38.5908C125.103 38.5908 125.382 38.7835 125.382 39.1502C125.382 39.2385 125.345 39.3776 125.288 39.5516M122.281 47.3208C122.039 47.6366 121.873 47.7945 121.779 47.7945C121.741 47.7945 121.427 47.6205 120.815 47.2512L120.24 47.7945C120.074 47.7249 119.738 47.5322 119.201 47.2351C119.274 47.096 119.443 46.8845 119.703 46.6223C119.76 46.5687 119.851 46.5179 119.961 46.4296C120.501 46.7454 120.796 46.9033 120.871 46.9033C120.89 46.9033 121 46.8149 121.188 46.641C121.373 46.4831 121.486 46.3948 121.505 46.3948C121.615 46.3948 121.969 46.5687 122.544 46.9381C122.525 47.0076 122.431 47.1307 122.284 47.3234" fill="white"/>
<path d="M132.272 43.6144H131.01C130.9 43.6144 130.768 43.5261 130.621 43.3709C130.527 43.8607 130.25 44.4548 129.748 45.1372C129.133 46.0124 128.524 46.4513 127.911 46.4513C127.576 46.4513 127.039 46.2934 126.295 45.9776C125.57 45.6805 125.127 45.4343 124.958 45.2603V45.1372C124.977 45.1024 125.033 45.0837 125.087 45.0837C125.106 45.0837 125.31 45.1533 125.68 45.2951C126.032 45.4343 126.311 45.5066 126.515 45.5066C127.017 45.5066 127.686 45.1747 128.521 44.5271C129.356 43.8794 129.783 43.3736 129.783 43.023C129.783 42.7768 129.466 42.3218 128.854 41.6768L129.654 40.4351C130.414 41.361 131.158 41.9578 131.864 42.2201H132.272V43.6198V43.6144Z" fill="white"/>
<path d="M138.992 43.6142H137.878C137.765 43.6142 137.674 43.7373 137.599 43.9648C137.524 44.1923 137.432 44.3314 137.339 44.3502L134.24 42.8113C134.146 42.8996 134.036 43.0736 133.869 43.3359C133.776 43.5286 133.647 43.6169 133.515 43.6169H131.901V42.2172H133.998C134.055 42.2172 134.184 42.0593 134.388 41.7435L134.777 41.0958C134.981 40.8336 135.352 40.5526 135.872 40.2903C136.393 40.0093 136.783 39.8701 137.04 39.8701C137.298 39.8701 137.43 39.9584 137.43 40.1163V40.3786C137.43 40.5017 137.449 40.5874 137.486 40.6757C137.822 41.4812 138.155 41.987 138.469 42.2145H138.987V43.6142H138.992ZM137.21 42.2654C137.21 42.0566 137.153 41.8452 137.024 41.6177C136.858 41.3367 136.654 41.1975 136.375 41.1975C135.835 41.1975 135.483 41.3367 135.317 41.6017L136.133 42.0727C136.522 42.3002 136.82 42.4233 137.006 42.4233C137.078 42.4233 137.191 42.3885 137.21 42.3885V42.2654Z" fill="white"/>
<path d="M150.723 38.8881C150.406 39.2895 150.24 39.517 150.24 39.5892L150.538 41.8641C150.538 42.0915 150.425 42.6348 150.224 43.4564C150.205 43.5608 150.133 43.6143 150.001 43.6143H145.973C145.917 43.3868 145.861 43.055 145.826 42.6C145.584 42.5465 145.214 42.5304 144.711 42.5304C144.209 42.5304 143.914 42.5492 143.782 42.584C143.707 42.6 143.431 42.7071 142.966 42.9346L142.335 43.2851C141.908 43.5126 141.648 43.617 141.538 43.617H138.437V42.2173H141.796C141.908 42.2173 142.169 42.129 142.593 41.955C142.982 41.7971 143.186 41.7088 143.243 41.658C143.243 41.658 143.205 41.6392 143.133 41.5884C141.924 41.2218 141.259 41.0291 141.092 41.0291C140.813 41.0291 140.574 41.0826 140.33 41.203C140.257 41.2539 140.144 41.3261 139.978 41.3957C140.442 40.2235 141.073 39.6454 141.908 39.6454C142.279 39.6454 142.725 39.7685 143.245 39.996C144.024 40.3466 144.451 40.5393 144.526 40.5554C145.474 40.8524 146.363 41.0291 147.217 41.0639C147.088 41.3797 146.956 41.7624 146.846 42.22H149.555C149.593 42.1504 149.612 42.0273 149.612 41.8533C149.612 41.5028 149.408 40.4349 148.999 38.6499C148.981 38.5616 148.889 38.4572 148.72 38.3341C148.573 38.211 148.497 38.1414 148.497 38.1066C148.497 38.037 148.814 37.5285 149.445 36.6025C149.445 36.7604 149.464 36.8648 149.502 36.9531C149.706 37.285 150.299 37.6891 151.322 38.1601L150.729 38.8961L150.723 38.8881ZM143.001 37.9781C142.461 38.5214 142.147 38.8024 142.072 38.8024C141.978 38.8024 141.573 38.5749 140.883 38.12C140.901 38.0504 141.049 37.8925 141.328 37.6302C141.608 37.3679 141.774 37.2261 141.83 37.2261C141.849 37.2261 142.257 37.4188 143.055 37.8202C143.055 37.839 143.036 37.8898 142.998 37.9781" fill="white"/>
<path d="M154.735 41.0048C154.735 42.0379 154.474 42.8943 153.972 43.6115L153.285 38.2028C153.285 38.1145 153.432 37.8174 153.749 37.3437C154.028 36.9423 154.232 36.6452 154.361 36.4873L154.732 41.0021L154.735 41.0048Z" fill="white"/>
<path d="M169.862 41.3206C169.768 41.8451 169.695 42.2305 169.62 42.458C169.473 42.8969 169.25 43.2287 168.97 43.491C168.952 43.491 168.839 43.5097 168.638 43.5445C168.264 43.6141 167.969 43.6489 167.765 43.6489C166.855 43.6489 166.261 43.4027 165.963 42.8969C165.684 43.2475 165.37 43.4562 164.981 43.5445C164.795 43.5981 164.406 43.6141 163.81 43.6141C163.123 43.6141 162.733 43.5793 162.62 43.5258C162.344 43.3679 162.118 42.9129 161.917 42.1261C161.751 42.2144 161.563 42.4071 161.396 42.7042C161.23 43.0013 161.063 43.1779 160.894 43.1939L158.222 42.7229L158.631 41.6043C159.001 40.7639 159.484 40.4668 160.376 40.0627L161.49 39.589C161.434 39.2732 161.418 39.0993 161.434 39.0457C161.509 38.9226 161.638 38.7487 161.842 38.5212L162.322 38.0127L162.881 41.9147C162.9 42.1957 163.512 42.2466 164.328 42.2466C164.589 42.2466 164.868 42.2118 165.144 42.1234C165.534 42.0003 165.738 41.8612 165.738 41.6872C165.738 41.6524 165.719 41.6176 165.7 41.5641L165.013 37.8896C165.33 37.4186 165.496 37.1724 165.534 37.1376C165.738 36.8566 165.961 36.6318 166.202 36.4551L166.294 36.5782C166.369 37.7157 166.554 39.4311 166.833 41.7247C166.852 41.7943 166.981 41.8826 167.223 41.987C167.593 42.1609 167.891 42.2492 168.133 42.2492C168.597 42.2492 168.858 42.1261 168.93 41.8826L167.966 38.9414C168.246 38.2241 168.578 37.6809 168.952 37.2955L169.859 41.3206H169.862ZM161.861 41.7059L161.603 39.9557C161.474 40.1484 161.289 40.3758 161.028 40.6729C160.711 40.796 160.247 41.0396 159.672 41.4249C160.47 41.6176 160.934 41.7059 161.028 41.7059H161.863H161.861ZM166.503 36.142C166.447 36.142 166.261 36.0724 166.189 36.0724C166.189 36.0724 165.818 36.4043 165.464 36.4043C165.169 36.4043 165.018 36.2116 165.018 35.845C165.018 35.4435 165.131 35.1786 165.354 35.0742C165.335 35.0394 165.335 35.2134 165.335 35.6175C165.335 35.8449 165.429 35.9493 165.595 35.9493C165.818 35.9493 165.928 35.861 165.928 35.6871C165.928 35.6175 165.891 35.3713 165.891 35.2856C165.891 35.0929 165.985 34.9538 166.17 34.9002C166.17 35.4087 166.28 35.6523 166.487 35.6523H166.578L166.635 35.6175C166.635 35.5292 166.541 35.2508 166.541 35.1973C166.541 35.1277 166.635 35.0046 166.82 34.8467C166.93 35.0742 166.986 35.2321 166.986 35.3365C166.986 35.8797 166.82 36.142 166.506 36.142M166.173 34.4961C166.135 34.5496 166.079 34.5844 166.006 34.5844C166.006 34.4613 165.987 34.3034 165.969 34.1107C165.84 33.5862 165.783 33.3748 165.783 33.4818C165.783 33.3935 166.044 33.0964 166.173 33.0269C166.267 33.6049 166.302 33.8324 166.302 33.728C166.302 33.9903 166.267 34.2526 166.173 34.4988" fill="white"/>
<path d="M173.001 41.0048C173.001 42.0379 172.74 42.8943 172.238 43.6115L171.551 38.2028C171.551 38.1145 171.701 37.8174 172.015 37.3437C172.295 36.9423 172.499 36.6452 172.627 36.4873L172.998 41.0021L173.001 41.0048Z" fill="white"/>
<path d="M183.228 43.614H181.705L181.297 42.6693C181.168 42.688 181.056 42.8272 180.943 43.0547C180.814 43.3357 180.701 43.5284 180.61 43.614H177.232C177.122 43.614 177.028 43.5097 176.972 43.2982C176.972 42.9476 177.047 42.4766 177.176 41.8798C177.248 41.5105 177.38 41.1974 177.584 40.9512C177.603 40.9699 177.64 40.9859 177.678 41.0395C177.584 42.0002 177.716 42.1769 177.938 42.1769H181.074C181.131 42.1073 181.15 42.0538 181.15 42.0029C181.15 41.8102 181.056 41.4088 180.852 40.7772C180.76 40.4614 180.648 40.1483 180.556 39.8137L181.316 38.4141L182.226 41.845C182.302 42.0912 182.506 42.2117 182.839 42.2117H183.228V43.6114V43.614Z" fill="white"/>
<path d="M188.316 43.6141H186.979C186.998 43.6141 186.941 43.5953 186.812 43.5632C186.589 43.4749 186.423 43.3518 186.294 43.1939C186.2 43.0895 186.144 42.9504 186.09 42.7577L185.55 43.6141H182.785V42.2144H185.848C185.924 42.0404 185.958 41.8103 185.942 41.5132C185.942 41.2161 185.961 41.0047 186.018 40.9003C186.09 40.7264 186.444 40.3223 187.075 39.6934V40.6729C187.075 40.7077 187.057 40.8468 187 41.0743C186.963 41.3018 186.944 41.441 186.944 41.4597C186.944 41.5988 187.019 41.7407 187.186 41.8959C187.408 42.1073 187.54 42.2117 187.575 42.2117H188.316V43.6114V43.6141ZM185.977 46.6757C185.846 46.7105 185.792 46.7292 185.811 46.7292C185.754 46.7292 185.569 46.6061 185.255 46.3786C185.126 46.2903 184.941 46.1351 184.68 45.8889C184.922 45.557 185.239 45.2573 185.609 44.979C185.701 44.9281 185.757 44.8906 185.813 44.8906C185.889 44.8906 186.24 45.1529 186.871 45.6775C186.965 45.747 187.003 45.8166 187.003 45.8702C187.003 45.9397 186.855 46.1137 185.983 46.6757" fill="white"/>
<path d="M194.312 42.0913L193.42 43.6141H187.368V42.2144H188.52C188.52 42.0404 188.539 41.7782 188.558 41.4276C188.595 41.2697 188.705 41.0609 188.912 40.8147C189.634 39.9396 190.303 39.3803 190.953 39.1528C191.103 39.0992 191.232 39.0645 191.361 39.0645C191.731 39.0645 192.086 39.2384 192.233 39.3267C192.55 39.5355 192.789 39.7469 192.958 39.9744C193.329 40.4829 193.514 40.796 193.498 40.9378V41.2349C193.071 40.8308 192.569 40.5872 191.994 40.5177C191.753 40.4829 191.492 40.4641 191.253 40.4641C190.899 40.4641 190.622 40.4829 190.381 40.5337C190.026 40.6033 189.769 40.7077 189.602 40.8656C189.935 41.4089 190.418 41.8451 191.049 42.1769C191.106 42.1957 191.216 42.2117 191.385 42.2117C191.423 42.2117 191.645 42.1957 192.072 42.1582C192.499 42.1234 192.722 42.1047 192.76 42.1047H194.003C194.022 42.1047 194.059 42.1047 194.097 42.0859H194.32L194.312 42.0913Z" fill="white"/>
<path d="M197.472 21.5085C197.351 21.8029 197.19 22.2953 197.002 22.9992C197.297 23.5933 197.45 24.0938 197.45 24.5113C197.45 24.6317 197.434 24.7254 197.397 24.7843C197.268 24.8779 197.01 24.9207 196.631 24.9207C196.062 24.9207 195.576 24.7976 195.157 24.5407C195.211 24.34 195.27 24.1339 195.324 23.9252C195.407 23.596 195.453 23.3391 195.453 23.1651C195.453 22.9724 195.386 22.8707 195.254 22.8707C195.109 22.8707 194.959 23.0848 194.814 23.5077C194.618 24.0724 194.411 24.4818 194.199 24.7254C193.812 25.1777 193.211 25.3971 192.392 25.3971H191.731C191.237 25.3971 190.88 25.2901 190.647 25.0679C190.896 24.6023 191.017 24.2222 191.017 23.9305C191.017 23.7592 190.955 23.6736 190.829 23.6736C190.746 23.6736 190.633 23.8101 190.496 24.075C190.314 24.439 190.11 24.7334 189.881 24.9475C189.465 25.3489 188.764 25.5416 187.784 25.5416H187.478C186.984 25.5416 186.544 25.448 186.173 25.2687C185.8 25.0813 185.609 24.9903 185.609 24.9903C185.55 24.9903 185.481 25.2339 185.397 25.7129C185.33 26.1438 185.298 26.4301 185.298 26.5854C185.427 26.7138 185.639 26.8369 185.95 26.936C186.232 27.0377 186.375 27.0939 186.383 27.1153C186.407 27.1875 186.412 27.2651 186.412 27.3508C186.412 27.6452 186.305 27.9797 186.085 28.3597C185.577 29.2697 184.914 30.0137 184.103 30.6078C183.284 31.1939 182.479 31.5177 181.673 31.5659C181.075 31.6007 180.32 31.5793 179.418 31.5017C179.015 31.4669 178.811 31.4669 178.811 31.515C178.811 31.5578 178.986 31.6435 179.327 31.772C180.414 32.1868 181.598 32.3875 182.887 32.3875C183.274 32.3875 183.593 32.3527 183.843 32.2724C184.702 32.0075 185.521 31.1484 186.289 29.7005C186.547 29.2215 186.783 28.6541 187.003 28.0091C187.094 27.7094 187.186 27.407 187.285 27.1072H187.782C188.609 27.1072 189.285 26.8851 189.809 26.4275C190.212 26.7941 190.848 26.9708 191.729 26.9708H192.413C193.286 26.9708 193.984 26.5854 194.51 25.8039C195.063 26.2321 195.764 26.4489 196.607 26.4489C196.873 26.4489 197.085 26.4194 197.244 26.3552C197.45 26.283 197.646 25.919 197.837 25.2526C198.028 24.6076 198.119 24.0135 198.119 23.4542C198.119 22.5389 197.907 21.8859 197.475 21.5005" fill="white"/>
<path d="M183.545 23.7912C183.62 23.5824 183.657 23.3683 183.657 23.1409C183.657 22.4263 183.317 21.7733 182.64 21.1711C181.697 20.3469 180.462 19.9401 178.935 19.9401C178.078 19.9481 175.702 20.1836 171.806 20.6573C167.939 21.131 164.728 21.3585 162.153 21.3585C159.952 21.3585 158.257 21.2862 157.073 21.1283C156.002 20.9999 155.47 20.8206 155.47 20.5984C155.47 20.205 156.526 19.4316 158.644 18.2861C160.679 17.1835 162.419 16.4021 163.861 15.9444C163.915 15.931 164.065 15.6928 164.317 15.2432C164.57 14.799 164.683 14.5474 164.661 14.5046C164.653 14.4966 164.629 14.4912 164.599 14.4912C164.334 14.4912 163.619 14.7267 162.473 15.1924C161.173 15.7223 159.96 16.3084 158.843 16.9453C157.43 17.7482 156.405 18.5056 155.776 19.2228C154.727 20.4111 154.203 21.2488 154.203 21.7358C154.203 21.7787 154.211 21.8134 154.219 21.8429C154.531 22.5655 156.952 22.9241 161.493 22.9241C163.764 22.9241 166.111 22.8037 168.541 22.5521C169.43 22.4664 171.266 22.2309 174.061 21.8509C175.93 21.6074 177.318 21.4789 178.223 21.4789C179.439 21.4789 180.441 21.693 181.222 22.1078C182.02 22.5441 182.414 23.1034 182.414 23.7912C181.816 23.8474 180.188 24.0481 177.525 24.4067C174.891 24.7573 172.756 25.0089 171.124 25.1507C166.871 25.5361 162.97 25.7235 159.423 25.7235C157.237 25.7235 155.497 25.6672 154.2 25.5388C153.54 25.4799 153.024 25.3889 152.651 25.2605C151.977 25.0303 151.446 24.6449 151.056 24.0936C150.57 23.4058 150.143 22.346 149.773 20.9142C149.569 20.0257 149.37 19.1318 149.174 18.2299C148.954 17.3414 148.763 16.8972 148.621 16.8972C148.371 17.6064 148.218 18.1149 148.164 18.4146C148.264 18.5805 148.371 19.0221 148.492 19.7474C146.403 20.6198 145.106 21.2648 144.583 21.6662C144.089 22.0543 143.67 22.4905 143.315 22.983C142.942 23.5129 142.754 23.9491 142.754 24.3077C142.754 24.5379 143.058 24.7091 143.651 24.8242C144.161 24.9259 144.784 24.9741 145.528 24.9741C146.508 24.9741 147.152 24.9099 147.448 24.7654C147.684 24.6583 148.054 24.3505 148.565 23.842C148.785 23.6333 149.021 23.3898 149.271 23.1114C149.673 24.4656 150.218 25.4451 150.903 26.0473C151.564 26.6334 152.665 26.992 154.203 27.1151C155.685 27.2436 157.422 27.3024 159.428 27.3024C162.191 27.3024 166.095 27.0723 171.129 26.6146C172.397 26.4996 174.614 26.2426 177.796 25.8412C180.674 25.4826 182.17 25.3033 182.283 25.3033C182.761 25.3033 183.18 24.8028 183.55 23.7912M147.566 23.4968C147.238 23.5477 146.798 23.5691 146.245 23.5691C145.622 23.5691 145.061 23.5477 144.553 23.4915C144.013 23.4353 143.74 23.3683 143.74 23.2907C143.74 22.9455 144.507 22.4664 146.033 21.8375C147.378 21.2862 148.275 20.9865 148.707 20.9356L149.171 22.7689C148.511 23.1997 147.971 23.4406 147.568 23.4995" fill="white"/>
<path d="M137.059 12.0186C136.984 12.0186 136.847 12.2273 136.656 12.6341C136.466 13.0275 136.361 13.2925 136.337 13.437C136.321 13.5654 136.498 16.4906 136.885 20.0875C137.287 23.8101 137.483 25.9458 137.483 26.4891C137.779 26.2321 137.991 25.8735 138.106 25.4159C138.16 25.1857 138.19 24.9154 138.19 24.5862C138.19 22.9965 137.824 18.1311 137.102 12.1069C137.094 12.0507 137.078 12.0212 137.057 12.0212" fill="white"/>
<path d="M144.021 17.5717C144.317 17.2774 144.507 17.0285 144.591 16.8331C145.463 17.4406 145.912 17.743 145.941 17.743C146.024 17.743 146.231 17.5717 146.556 17.2212C146.897 16.8545 147.072 16.5896 147.072 16.4343C147.072 16.3487 146.867 16.1614 146.457 15.883C146.04 15.5967 145.788 15.4521 145.697 15.4521C145.643 15.4521 145.286 15.883 144.625 16.7341C144.634 16.7127 144.634 16.6993 144.634 16.6832C144.634 16.5976 144.429 16.4102 144.019 16.1319C143.6 15.8456 143.35 15.7037 143.259 15.7037C143.235 15.7037 143.052 15.9125 142.711 16.3273C142.4 16.7127 142.201 16.9642 142.126 17.0713C143.023 17.6868 143.476 17.9946 143.5 17.9946C143.57 17.9946 143.742 17.8581 144.016 17.5717" fill="white"/>
<path d="M84.2613 32.5932C84.5567 32.2988 84.7473 32.0499 84.8306 31.8546C85.7032 32.4621 86.1516 32.7645 86.1838 32.7645C86.267 32.7645 86.4711 32.5932 86.7987 32.2426C87.1397 31.876 87.3142 31.6137 87.3142 31.4558C87.3142 31.3702 87.1101 31.1828 86.6993 30.9045C86.2805 30.6182 86.0308 30.4736 85.9395 30.4736C85.8858 30.4736 85.5287 30.9045 84.8681 31.7556C84.8762 31.7342 84.8762 31.7208 84.8762 31.7047C84.8762 31.6191 84.6721 31.4317 84.2613 31.1534C83.8425 30.867 83.5928 30.7252 83.5015 30.7252C83.4773 30.7252 83.2947 30.9339 82.9537 31.3488C82.6423 31.7341 82.4463 31.9857 82.3684 32.0928C83.2652 32.7083 83.7216 33.0161 83.7431 33.0161C83.8103 33.0161 83.9848 32.8796 84.2587 32.5932" fill="white"/>
<path d="M132.991 14.4085C132.68 14.3229 132.436 14.157 132.256 13.9001C132.202 13.8224 132.156 13.4852 132.127 12.8911C132.103 12.3318 132.073 12.0454 132.044 12.0454C131.899 12.1739 131.67 12.5967 131.375 13.2979C131.08 13.9857 130.935 14.4139 130.935 14.5879C130.935 14.7029 131.026 14.909 131.209 15.2114C131.399 15.5406 131.504 15.7333 131.52 15.7975C131.802 17.1009 132.068 18.7414 132.309 21.7067C132.414 23.0181 132.476 23.7058 132.489 23.7861C132.304 24.0564 131.383 24.4846 130.454 24.7282C130.282 24.7737 129.659 24.87 129.104 24.8861C128.851 24.8941 128.499 24.8593 128.209 24.8218C127.965 24.7897 127.766 24.7549 127.705 24.7389C127.176 24.6077 126.91 24.4124 126.91 24.1474C126.91 24.0752 126.931 23.9895 126.98 23.8959L127.731 23.9092C127.868 23.9173 127.96 23.8745 127.997 23.7861L128.575 22.6193C128.658 22.448 128.628 22.3624 128.483 22.3624H126.896C125.285 22.3624 123.814 22.076 122.485 21.5033C122.066 21.3186 121.658 21.1233 121.247 20.9306C120.646 20.6737 120.205 20.5425 119.926 20.5425C119.395 20.5425 118.796 20.9065 118.133 21.6237C117.534 22.2821 117.236 22.7692 117.236 23.0769C117.236 23.1278 117.252 23.1545 117.281 23.1706C117.311 23.184 117.418 23.1064 117.601 22.919C117.837 22.6889 118.087 22.5096 118.337 22.3811C118.739 22.1804 119.188 22.0814 119.695 22.0814C120.203 22.0814 121.086 22.448 122.399 23.1706C120.128 24.3321 117.494 24.9102 114.502 24.9102C114.105 24.9102 113.745 24.9021 113.415 24.8754C113.066 24.854 112.655 24.7309 112.185 24.5168C111.624 24.2732 111.176 23.9654 110.84 23.5988C110.711 23.457 110.413 23.0261 109.967 22.2955C109.64 21.7736 109.385 21.5086 109.178 21.5086C108.936 21.5086 108.48 21.8084 107.819 22.4105C107.097 23.0689 106.649 23.6711 106.474 24.201C106.184 24.3776 105.774 24.5194 105.242 24.6292C105.027 24.6747 103.773 24.8406 103.027 24.8272C102.554 24.8192 102.071 24.779 101.725 24.7416C101.453 24.7121 100.699 24.5569 100.318 24.4552C100.001 24.3696 99.6866 24.2812 99.5282 24.2197C99.061 24.0457 98.6421 23.837 98.2716 23.6015C97.7615 23.2857 97.4366 22.9779 97.2916 22.6915C97.0956 22.9137 96.8969 23.4088 96.7063 24.1742C96.7439 24.2679 96.9023 24.4472 97.1708 24.7041C97.4822 25.0119 97.7776 25.2554 98.0595 25.4267C98.0837 25.4989 98.089 25.5712 98.089 25.6488C98.089 26.1225 97.8608 26.7006 97.3963 27.3884C96.8566 28.2046 96.1048 28.9567 95.149 29.6525C94.381 30.2038 93.5004 30.549 92.4989 30.6695C92.37 30.6828 92.2035 30.6989 91.9914 30.6989C91.9082 30.6989 91.492 30.6989 90.7268 30.6909C90.1736 30.6828 89.8917 30.7123 89.8917 30.7685C89.8917 30.8541 90.2784 30.9826 91.0463 31.1485C91.9189 31.3358 92.7486 31.4268 93.5353 31.4268C94.1958 31.4268 94.7569 31.3546 95.2214 31.2127C96.231 30.905 97.1573 29.8318 97.9924 27.9825C98.1454 27.6533 98.2958 27.1957 98.4488 26.623C98.5777 26.1225 98.6475 25.8067 98.6475 25.6916C99.1335 25.8897 99.8101 26.061 100.672 26.2028C100.86 26.2349 101.375 26.3232 101.907 26.3687C102.425 26.4142 103.298 26.3875 103.368 26.3821C103.505 26.3687 104.388 26.2296 104.649 26.1653C105.709 25.9004 106.378 25.4695 106.657 24.8727C107.068 25.4106 107.736 25.8469 108.671 26.1894C109.476 26.4838 110.22 26.6256 110.894 26.6256C111.068 26.6256 111.213 26.6123 111.334 26.5909C111.509 26.3339 111.646 26.1172 111.745 25.9459C111.836 26.0476 112.048 26.1546 112.389 26.2536C112.728 26.3527 113.063 26.4169 113.402 26.4463C113.705 26.4704 114.116 26.4838 114.623 26.4838C117.174 26.4838 119.376 26.0262 121.236 25.1082C122.99 24.2491 124.311 23.8129 125.186 23.8129C125.648 23.8129 126.059 23.8423 126.424 23.8905C126.295 24.2063 126.228 24.5275 126.228 24.8433C126.228 25.1162 126.282 25.3517 126.386 25.5658C126.631 26.0395 127.342 26.3286 128.524 26.4383C128.524 26.4383 129.01 26.4544 129.509 26.4142C129.965 26.3767 130.433 26.2804 130.612 26.2242C131.466 25.9539 132.191 25.515 132.476 25.2768C132.65 25.1323 132.817 24.7764 132.978 24.209C133.136 23.6443 133.214 23.1144 133.214 22.6113C133.214 22.2821 133.123 21.1795 132.932 19.2954C132.728 17.232 132.605 16.5014 132.583 16.116C133.19 15.1632 133.48 14.6548 133.451 14.5825C133.426 14.5397 133.276 14.4835 132.994 14.4032M107.398 23.8664C107.543 23.6363 107.747 23.4222 108.005 23.2081C108.254 22.994 108.453 22.8869 108.59 22.8869C108.697 22.8869 108.877 23.1438 109.138 23.647C109.449 24.2625 109.782 24.7148 110.139 24.9931C109.009 24.9209 108.099 24.5408 107.398 23.8691" fill="white"/>
<path d="M90.5845 18.6852C90.265 18.4283 89.932 18.2998 89.5749 18.2998C88.7399 18.2998 87.8592 18.8163 86.9329 19.8467C86.4845 20.3471 86.0737 21.0483 85.7166 21.9449C85.389 22.7611 85.2306 23.3927 85.2306 23.8343C85.2306 24.2759 85.4347 24.6425 85.8455 24.9235C86.3234 25.2447 87.0161 25.4106 87.9183 25.4106C88.6916 25.4106 89.0782 25.5096 89.0782 25.697C89.0782 25.9485 88.4338 26.3125 87.1504 26.7996C85.7676 27.3161 84.5513 27.573 83.4961 27.573C82.0462 27.573 80.9614 27.1502 80.2392 26.3045C79.7317 25.7104 79.4793 25.044 79.4793 24.308C79.4793 23.7861 79.6834 23.1251 80.1022 22.3383C80.2848 22.0091 80.3681 21.7736 80.3681 21.6424C80.3681 21.5916 80.3519 21.5648 80.3144 21.5648C80.207 21.5648 80.011 21.7736 79.721 22.1884C78.9853 23.2482 78.6201 24.2786 78.6201 25.2955C78.6201 26.3125 78.9316 27.185 79.5626 27.8888C80.3224 28.7479 81.4313 29.1707 82.8893 29.1707C84.5298 29.1707 86.1166 28.8202 87.6578 28.1029C89.4863 27.2572 90.3992 26.1974 90.3992 24.9102C90.3992 24.2143 89.7602 23.8637 88.4768 23.8637C87.9988 23.8637 87.5424 23.7781 87.1101 23.6068C86.7315 23.4623 86.4657 23.291 86.3127 23.0903C86.1462 22.8762 86.1462 22.5952 86.3127 22.2393C86.5999 21.6237 87.0806 21.0644 87.7491 20.5505C88.364 20.0849 88.8715 19.8494 89.2662 19.8494C89.5857 19.8494 89.881 20.0153 90.1388 20.3445C90.4046 20.6656 90.5576 20.8315 90.6033 20.8315C90.9067 20.481 91.0597 20.0447 91.0597 19.5148C91.0597 19.2285 90.9013 18.9501 90.5818 18.6905" fill="white"/>
<path d="M124.356 17.344C124.045 17.7321 123.846 17.981 123.771 18.088C124.668 18.7036 125.124 19.0113 125.146 19.0113C125.229 19.0113 125.436 18.8401 125.761 18.4895C126.102 18.1255 126.276 17.8606 126.276 17.7027C126.276 17.617 126.072 17.4297 125.661 17.1513C125.245 16.865 124.993 16.7231 124.902 16.7231C124.88 16.7231 124.695 16.9319 124.354 17.3467" fill="white"/>
<path d="M193.119 19.0919C193.119 19.0063 192.915 18.8189 192.504 18.5406C192.086 18.2542 191.836 18.1124 191.745 18.1124C191.72 18.1124 191.538 18.3185 191.197 18.736C190.885 19.124 190.689 19.3729 190.612 19.48C191.508 20.0955 191.965 20.4033 191.986 20.4033C192.053 20.4033 192.228 20.2668 192.502 19.9804C192.797 19.686 192.988 19.4372 193.071 19.2418C193.944 19.8493 194.392 20.1517 194.422 20.1517C194.505 20.1517 194.712 19.9804 195.036 19.6298C195.377 19.2659 195.552 18.9982 195.552 18.843C195.552 18.7574 195.348 18.57 194.937 18.2917C194.521 18.0054 194.269 17.8608 194.177 17.8608C194.124 17.8608 193.766 18.2917 193.106 19.1428C193.114 19.1214 193.114 19.108 193.114 19.0919" fill="white"/>
<path d="M191.745 17.4247C192.609 18.0108 193.044 18.2971 193.05 18.2971C193.133 18.2971 193.323 18.1339 193.635 17.802C193.962 17.4595 194.129 17.2079 194.129 17.05C194.129 16.9724 193.93 16.7984 193.536 16.5281C193.149 16.2551 192.905 16.1187 192.821 16.1187C192.73 16.1187 192.373 16.5549 191.742 17.422" fill="white"/>
<path d="M29.259 81.5409L29.2597 81.541C31.4488 81.9632 33.6966 82.1769 35.9366 82.1769H53.7892C54.4628 82.1769 55.0075 81.6335 55.0076 80.9643C55.0076 80.9643 55.0076 80.9642 55.0076 80.9641L54.9888 34.732V34.7318C54.9888 31.8533 54.6314 28.9854 53.93 26.2101L53.93 26.2099C53.7235 25.392 53.4854 24.5771 53.2371 23.8321L29.259 81.5409ZM29.259 81.5409C28.8608 81.4646 28.469 81.3802 28.0767 81.2925L27.9654 81.2676L27.8544 81.2933C27.4692 81.3828 27.0813 81.4643 26.6907 81.5379L26.6887 81.5383C24.4861 81.9632 22.2383 82.1769 19.9984 82.1769H2.1458C1.82049 82.1769 1.51097 82.0493 1.28394 81.8211L1.28247 81.8197C1.05353 81.5915 0.925507 81.2832 0.927396 80.9644L0.927397 80.9617L0.946192 34.732V34.7318C0.946192 31.8535 1.30352 28.9883 2.00489 26.2103C2.21136 25.395 2.44961 24.5797 2.71428 23.783L2.71514 23.7804C2.74029 23.7033 2.77122 23.6344 2.80508 23.5782L2.83259 23.5325L2.84983 23.482C4.76836 17.8692 8.12135 12.8039 12.5624 8.81716M29.259 81.5409L12.5624 8.81716M12.5624 8.81716L12.5682 8.81199L12.5873 8.79497C12.5937 8.78916 12.6041 8.77976 12.6142 8.76995C12.6158 8.76839 12.6184 8.76591 12.6216 8.76273L12.8047 8.60211L12.8057 8.60127C16.0618 5.73041 19.7725 3.51713 23.8354 2.02381C24.3507 1.83586 24.848 1.66451 25.3494 1.50671L25.3505 1.50636C26.1143 1.264 26.8977 1.04763 27.6822 0.857428C27.8708 0.811847 28.0668 0.811847 28.2555 0.857429L28.2567 0.857709C29.0389 1.04474 29.8216 1.26348 30.5833 1.50598L12.5624 8.81716ZM12.475 8.22622L12.2736 8.40285L12.475 8.22622ZM12.475 8.22622C15.7776 5.31446 19.5419 3.06908 23.6634 1.55432L12.475 8.22622ZM53.2264 23.8L53.2369 23.8316L30.5834 1.506C31.0887 1.6677 31.5888 1.83654 32.0793 2.01793L32.0802 2.01823C36.1623 3.51964 39.8732 5.73308 43.1321 8.60408L43.1329 8.60479L43.3292 8.77695L43.33 8.77771L43.3429 8.78969C43.3527 8.79875 43.3566 8.80252 43.3567 8.80249L43.3634 8.80921L43.3735 8.81819C47.9006 12.8714 51.3047 18.0405 53.2155 23.7676L53.2156 23.7678L53.2264 23.8Z" fill="#0E5B81" stroke="white"/>
<path d="M28.6333 12.4467C25.3012 11.9141 22.7934 9.39574 22.1114 6.29932C22.0711 6.46792 22.0309 6.6392 22.0013 6.81316C21.3999 10.5546 23.9533 14.0738 27.707 14.6733C30.8887 15.1818 33.9013 13.4262 35.1149 10.6001C33.3965 12.0854 31.0525 12.8347 28.6306 12.4493" fill="white"/>
<path d="M48.3386 48.5976L48.258 43.5529C48.258 29.5989 39.4834 19.2231 27.8869 16.2765C16.2904 19.2231 7.66077 29.5989 7.66077 43.5529L7.61513 48.5976H7.08081L7.22043 40.0176C7.22043 27.4739 16.0756 16.7903 27.8869 13.8545C39.6982 16.7903 48.6957 27.4739 48.6957 40.0176L48.8353 48.5976H48.3386Z" fill="white"/>
<path d="M10.0424 70.7568L11.5138 76.104H7.08887L8.04473 72.8122H9.21539L8.71329 74.8194H9.92155L8.64617 70.7568H10.0424Z" fill="white"/>
<path d="M13.9625 70.7568V74.8194H15.9574V76.104H12.5905V70.7568H13.9625Z" fill="white"/>
<path d="M34.6101 70.7571H38.4846C38.9544 70.7571 39.3035 70.7865 39.5317 70.8481C39.7599 70.9069 39.9586 71.022 40.1305 71.188C40.2943 71.3512 40.4097 71.5385 40.4768 71.7553C40.544 71.9721 40.5789 72.2611 40.5789 72.6251V76.1042H39.0753V72.6786C39.0753 72.4271 39.0323 72.2585 38.9437 72.1701C38.8551 72.0818 38.6859 72.039 38.4389 72.039H36.1164V76.1042H34.6128V70.7544L34.6101 70.7571ZM38.2886 76.1069H36.9058V72.7776H38.2886V76.1069Z" fill="white"/>
<path d="M48.8461 72.0414H47.3425V70.7568H48.8461V72.0414ZM48.8461 76.1067H47.3425V72.7961H48.8461V76.1067Z" fill="white"/>
<path d="M43.6265 70.7568H44.3058C44.8616 70.7568 45.2616 70.8077 45.5006 70.9067C45.847 71.0485 46.0886 71.2841 46.2255 71.6159C46.3034 71.7979 46.341 71.9933 46.341 72.1967C46.341 72.5687 46.2336 72.8711 46.0161 73.1093C45.9168 73.219 45.8067 73.3046 45.6885 73.3608C45.5704 73.4197 45.4039 73.4732 45.1891 73.5187C45.361 73.5562 45.4925 73.5963 45.5838 73.6418C45.6751 73.6873 45.7584 73.7542 45.8335 73.8399C46.0054 74.0352 46.0913 74.3189 46.094 74.6909V76.1067H44.5931V74.8488C44.5931 74.5651 44.5286 74.3671 44.4024 74.2601C44.2762 74.153 44.04 74.0995 43.699 74.0995H43.6211V72.8149H44.1984C44.4481 72.8149 44.6119 72.7694 44.687 72.6811C44.7488 72.6088 44.7783 72.5232 44.7783 72.4268C44.7783 72.2957 44.7354 72.1993 44.6521 72.1378C44.5689 72.0736 44.4346 72.0441 44.2521 72.0441H43.6184V70.7595L43.6265 70.7568Z" fill="white"/>
<path d="M43.0169 70.7568H41.653V76.1067H43.0169V70.7568Z" fill="white"/>
<path d="M27.5808 70.7568V76.104H26.0745V74.0995H24.9199V72.8122H26.0745V70.7568H27.5808Z" fill="white"/>
<path d="M24.3857 70.7568H23.0217V76.1067H24.3857V70.7568Z" fill="white"/>
<path d="M21.8268 70.7568L20.0413 73.302L21.9476 76.104H20.3608L19.021 74.1022L18.9216 73.955V72.8176L20.3608 70.7568H21.8268Z" fill="white"/>
<path d="M18.3955 70.7568H17.0315V76.1067H18.3955V70.7568Z" fill="white"/>
<path d="M31.9439 74.4583C31.7587 74.7687 31.4794 74.9213 31.1035 74.9213C30.7571 74.9213 30.4913 74.7928 30.3088 74.5359C30.1503 74.3111 30.0564 74.0301 30.0215 73.6929H28.6628C28.7085 74.3673 28.9475 74.932 29.3824 75.3869C29.8416 75.8633 30.4215 76.1042 31.1277 76.1042C31.8338 76.1042 32.4111 75.8526 32.8568 75.3548C33.2596 74.9025 33.4824 74.3486 33.5254 73.6955H32.1695C32.1426 73.9899 32.0674 74.2469 31.9412 74.4583" fill="white"/>
<path d="M30.2658 72.3655C30.4564 72.0818 30.7276 71.94 31.0847 71.94C31.4123 71.9453 31.6727 72.0711 31.8634 72.312C32.0325 72.5261 32.1319 72.8124 32.1668 73.1657H33.5227C33.4985 72.8338 33.4368 72.5341 33.3294 72.2638C33.1146 71.7205 32.7575 71.3164 32.2581 71.0488C31.8902 70.8534 31.4955 70.7544 31.0767 70.7544C30.6578 70.7624 30.2819 70.8588 29.9463 71.0408C29.5032 71.287 29.173 71.6402 28.9501 72.1032C28.7917 72.4324 28.6977 72.7883 28.6655 73.163H30.0161C30.0429 72.8392 30.1235 72.5716 30.2631 72.3628" fill="white"/>
<path d="M8.78579 63.3838H7.08887V65.0805H8.78579V63.3838Z" fill="white"/>
<path d="M16.0326 66.3893H11.7098V60.3892H7.08887V62.0806H10.0128V68.0807H17.7295V63.3839H14.7196V62.0806H17.7295V60.3892H13.0174V65.0806H16.0326V66.3893Z" fill="white"/>
<path d="M8.78579 66.3892H7.08887V68.0806H8.78579V66.3892Z" fill="white"/>
<path d="M48.8461 51.4287H47.1492V68.0804H48.8461V51.4287Z" fill="white"/>
<path d="M17.9067 53.1206H30.8512V51.4292H16.2098V56.1207H29.1328V57.4293H14.8297L14.8163 57.2821V51.4238H13.114V54.4239H7.09155V59.1234H30.8324V54.4319H17.9094V53.1233L17.9067 53.1206ZM13.1113 57.4293H8.79385V56.1207H13.1113V57.4293Z" fill="white"/>
<path d="M8.79116 51.4209H7.08887V53.1176H8.79116V51.4209Z" fill="white"/>
<path d="M11.801 51.4209H10.0988V53.1176H11.801V51.4209Z" fill="white"/>
<path d="M35.1016 59.1203H42.8236V54.4234H41.1213V57.4289H39.8137V54.4234H38.1115V57.4289H36.7985V54.4234H33.794V51.4287H32.097V59.1203H33.794V56.1202H35.1016V59.1203Z" fill="white"/>
<path d="M36.7985 51.4263H35.1016V53.1177H36.7985V51.4263Z" fill="white"/>
<path d="M42.8236 51.4263H41.1213V53.1177H42.8236V51.4263Z" fill="white"/>
<path d="M39.8137 51.4263H38.1115V53.1177H39.8137V51.4263Z" fill="white"/>
<path d="M42.8289 60.389H32.1345V62.0804H41.1293V63.3891H27.8197V60.389H23.1102V63.3864H20.5541V60.389H18.8572V68.0859H20.5541V65.0805H45.8388V51.4263H44.1419V63.3838H42.8262V60.389H42.8289ZM26.1174 63.3891H24.8098V62.0804H26.1174V63.3891Z" fill="white"/>
<path d="M30.8432 60.3838H29.1409V62.0752H30.8432V60.3838Z" fill="white"/>
<path d="M45.8415 66.3921H21.5073V68.0835H45.8415V66.3921Z" fill="white"/>
<path d="M37.3301 32.6605L27.9675 29.4811V28.4106L37.3301 31.5927V32.6605Z" fill="#D0A353"/>
<path d="M18.6049 32.6605L27.9675 29.4811V28.4106L18.6049 31.5927V32.6605Z" fill="#D0A353"/>
<g style="mix-blend-mode:multiply">
<mask id="mask1_458_420" style="mask-type:luminance" maskUnits="userSpaceOnUse" x="27" y="25" width="11" height="19">
<path d="M37.3301 25.7744H27.9675V43.7267H37.3301V25.7744Z" fill="white"/>
</mask>
<g mask="url(#mask1_458_420)">
<mask id="mask2_458_420" style="mask-type:luminance" maskUnits="userSpaceOnUse" x="27" y="25" width="11" height="19">
<path d="M37.3301 25.7744H27.9675V43.7267H37.3301V25.7744Z" fill="white"/>
</mask>
<g mask="url(#mask2_458_420)">
<path d="M27.9675 25.7744V31.4374V31.5043V42.1344L37.3301 43.7267V34.4856V34.3866V28.9538L27.9675 25.7744Z" fill="#231F20"/>
</g>
</g>
</g>
<path d="M18.6049 28.9538V34.3491V34.4937V43.3146L27.9675 42.1344V31.5123V31.3999V25.7744L18.6049 28.9538Z" fill="#4D4D4F"/>
<path d="M37.3301 32.6605L27.9675 29.4811V28.4106L37.3301 31.5927V32.6605Z" fill="#D0A353"/>
<path d="M27.9675 29.8984V30.9395L29.6591 31.5122V30.4738L27.9675 29.8984Z" fill="#D0A353"/>
<path d="M31.2458 31.0117V32.0528L34.0463 33.0029V31.9645L31.2458 31.0117Z" fill="#D0A353"/>
<path d="M37.3301 33.0781L35.6439 32.5054V33.5464L37.3301 34.1192V33.0781Z" fill="#D0A353"/>
<path d="M30.9505 31.2795C30.9505 31.5525 30.7357 31.772 30.4726 31.772C30.2094 31.772 29.9946 31.5525 29.9946 31.2795C29.9946 31.0066 30.2094 30.7871 30.4726 30.7871C30.7357 30.7871 30.9505 31.0066 30.9505 31.2795Z" fill="#D0A353"/>
<path d="M35.3808 32.754C35.3808 33.0511 35.1472 33.2893 34.8626 33.2893C34.578 33.2893 34.3444 33.0511 34.3444 32.754C34.3444 32.4569 34.578 32.2188 34.8626 32.2188C35.1472 32.2188 35.3808 32.4596 35.3808 32.754Z" fill="#D0A353"/>
<path d="M18.6049 32.6605L27.9675 29.4811V28.4106L18.6049 31.5927V32.6605Z" fill="#D8B271"/>
<path d="M27.9674 29.8984V30.9395L26.2759 31.5122V30.4738L27.9674 29.8984Z" fill="#D8B271"/>
<path d="M24.6918 31.0117V32.0528L21.8887 33.0029V31.9645L24.6918 31.0117Z" fill="#D8B271"/>
<path d="M18.6049 33.0781L20.2937 32.5054V33.5464L18.6049 34.1192V33.0781Z" fill="#D8B271"/>
<path d="M24.9468 31.3274C24.9468 31.6004 25.1616 31.8198 25.4247 31.8198C25.6878 31.8198 25.9026 31.6004 25.9026 31.3274C25.9026 31.0544 25.6878 30.835 25.4247 30.835C25.1616 30.835 24.9468 31.0544 24.9468 31.3274Z" fill="#D8B271"/>
<path d="M20.522 32.7779C20.522 33.075 20.7556 33.3132 21.0402 33.3132C21.3248 33.3132 21.5584 33.075 21.5584 32.7779C21.5584 32.4809 21.3248 32.2427 21.0402 32.2427C20.7556 32.2427 20.522 32.4835 20.522 32.7779Z" fill="#D8B271"/>
<path d="M27.9675 34.5634C27.9675 34.5634 27.9514 34.3386 27.938 33.9987C27.9353 33.913 27.9299 33.8221 27.9299 33.7257C27.9299 33.6294 27.9246 33.525 27.9246 33.4206C27.9246 33.3136 27.9192 33.2038 27.9192 33.0941C27.9192 32.9817 27.9192 32.8693 27.9192 32.7569C27.9192 32.6445 27.9192 32.5294 27.9192 32.4197C27.9192 32.3073 27.9219 32.1976 27.9246 32.0932C27.9272 31.8818 27.9326 31.6837 27.9407 31.5124C27.9514 31.1726 27.9702 30.9478 27.9702 30.9478C27.9702 30.9478 27.9863 31.1752 27.9997 31.5124C28.0051 31.681 28.0105 31.8791 28.0158 32.0932C28.0158 32.2002 28.0212 32.31 28.0212 32.4197C28.0212 32.5321 28.0212 32.6445 28.0212 32.7569C28.0212 32.8693 28.0212 32.9844 28.0212 33.0941C28.0212 33.2065 28.0185 33.3162 28.0158 33.4206C28.0158 33.5277 28.0105 33.6294 28.0105 33.7257C28.0105 33.8221 28.0051 33.9157 28.0024 33.9987C27.9917 34.3386 27.9729 34.5634 27.9729 34.5634" fill="#D0A353"/>
<path d="M33.0367 39.2868L32.9481 39.2466C32.1802 38.896 29.2186 38.6418 27.9674 38.6418C26.7162 38.6418 23.7573 38.8987 22.9868 39.2466L22.8981 39.2868L22.8928 39.1878C22.8847 39.0272 22.874 38.4464 23.0351 37.7774C23.2418 36.9263 23.6419 36.2599 24.2245 35.7969C24.6568 35.4544 25.1428 35.1065 25.6127 34.7693C26.7592 33.945 27.8386 33.1689 27.9272 32.6711L27.9916 32.3018L28.056 32.6711C28.1473 33.1796 29.2374 33.9744 30.3947 34.8174L30.4054 34.8255C30.8458 35.1466 31.2995 35.4758 31.7076 35.7996C32.2903 36.2599 32.6904 36.9263 32.8971 37.7801C33.0582 38.4491 33.0475 39.0299 33.0394 39.1904L33.034 39.2895L33.0367 39.2868ZM22.9626 39.1824V39.1342C22.9545 38.9335 22.9572 38.4009 23.1022 37.7934C23.3063 36.9558 23.6983 36.3028 24.2675 35.8505C24.6944 35.5133 25.175 35.1653 25.6422 34.8308L25.6556 34.8228C26.735 34.0467 27.7553 33.3134 27.9647 32.7888L27.9943 32.7112L28.0238 32.7888C28.2332 33.3214 29.267 34.0734 30.3598 34.8683C30.8028 35.1894 31.2592 35.524 31.6701 35.8478C32.2393 36.3001 32.6313 36.9531 32.8353 37.7908C32.983 38.3983 32.983 38.9308 32.9776 39.1316V39.1797L32.932 39.161C32.0916 38.8184 29.1703 38.5695 27.9674 38.5695C26.7646 38.5695 23.8433 38.8184 23.0055 39.161L22.9626 39.1797V39.1824ZM27.9701 38.5053C29.1864 38.5053 32.003 38.7435 32.9132 39.0861C32.9186 38.8586 32.9078 38.3662 32.7709 37.8068C32.5722 36.9852 32.1883 36.3429 31.6298 35.9013C31.219 35.5775 30.7625 35.243 30.3195 34.9218C29.2643 34.1537 28.2628 33.4258 27.9916 32.8798C27.7231 33.4124 26.735 34.1243 25.6932 34.8736L25.6798 34.8843C25.2153 35.2189 24.7347 35.5641 24.3078 35.9013C23.7493 36.3429 23.3653 36.9852 23.1666 37.8068C23.0324 38.3662 23.0217 38.8586 23.0243 39.0861C23.9346 38.7435 26.7511 38.5053 27.9674 38.5053" fill="white"/>
<path d="M32.9751 39.1849C32.9912 38.8504 33.0207 36.9208 31.6702 35.8503C30.1881 34.6755 28.1233 33.4203 27.9944 32.6816C27.8628 33.4203 25.7498 34.6755 24.2676 35.8503C22.9171 36.9208 22.9466 38.8504 22.9627 39.1849C23.7414 38.8317 26.719 38.5721 27.9702 38.5721C29.2215 38.5721 32.1991 38.829 32.9778 39.1849" fill="#32914C"/>
<path d="M33.0072 39.2388L32.9616 39.2174C32.1883 38.8641 29.2187 38.6072 27.9675 38.6072C26.7163 38.6072 23.7467 38.8641 22.9734 39.2174L22.9277 39.2388V39.1879C22.917 39.0274 22.9063 38.452 23.0674 37.7856C23.2714 36.9399 23.6688 36.2815 24.2461 35.8239C24.6757 35.484 25.1643 35.1334 25.6342 34.7962C26.7834 33.9692 27.8708 33.1878 27.9621 32.6766L27.9943 32.4893L28.0266 32.6766C28.1178 33.1985 29.216 33.996 30.3786 34.8417C30.8216 35.1655 31.2808 35.4974 31.6916 35.8239C32.2689 36.2815 32.6636 36.9399 32.8703 37.7856C33.0314 38.4493 33.018 39.0247 33.0126 39.1879V39.2388H33.0072ZM27.9943 32.8051C27.7822 33.3376 26.7565 34.0736 25.6745 34.8524C25.2046 35.1896 24.7186 35.5402 24.289 35.8801C23.7252 36.327 23.3359 36.9747 23.1345 37.8043C22.9895 38.4038 22.9868 38.931 22.9922 39.1371C23.8379 38.7918 26.7351 38.5429 27.9675 38.5429C29.1999 38.5429 32.097 38.7918 32.9428 39.1371C32.9482 38.931 32.9482 38.4038 32.8005 37.8043C32.5991 36.9747 32.2125 36.327 31.6459 35.8801C31.2351 35.5562 30.7787 35.2217 30.3357 34.9006C29.2402 34.103 28.2038 33.3483 27.989 32.8051" fill="white"/>
<path d="M23.6796 39.2066C23.6608 39.2066 23.6447 39.1906 23.6447 39.1719C23.6447 36.6856 25.1295 35.5643 26.1122 34.8203C26.1927 34.7587 26.2706 34.6998 26.3458 34.6436C27.9192 33.4233 27.9353 32.4812 27.9353 32.4732C27.9353 32.4545 27.9514 32.417 27.9675 32.417C27.9863 32.417 28.0024 32.4545 28.0024 32.4732C28.0024 32.5107 27.9863 33.4447 26.386 34.6865C26.3135 34.7427 26.233 34.8096 26.1524 34.8711C25.1805 35.6071 23.7118 36.7204 23.7118 39.1719C23.7118 39.1906 23.6957 39.2093 23.6769 39.2093" fill="white"/>
<path d="M23.6769 39.2387C23.6393 39.2387 23.6097 39.2092 23.6097 39.1717C23.6097 36.6694 25.1026 35.5401 26.0907 34.7934C26.1712 34.7318 26.2491 34.673 26.3243 34.6168C27.8789 33.4125 27.9004 32.4811 27.9004 32.4731C27.9004 32.441 27.9219 32.3848 27.9675 32.3848C28.0132 32.3848 28.0346 32.441 28.0346 32.4731C28.0346 32.5132 28.0185 33.4633 26.4075 34.7131C26.378 34.7372 26.3458 34.7613 26.3135 34.788C26.2679 34.8228 26.2223 34.8603 26.1739 34.8978C25.2073 35.6284 23.7467 36.7337 23.7467 39.1717C23.7467 39.2092 23.7171 39.2413 23.6796 39.2413M27.9702 32.4677C27.9702 32.4677 27.9702 32.4731 27.9702 32.4758C27.9702 32.4811 27.9702 32.9066 27.4923 33.5543C27.9648 32.9173 27.9729 32.4998 27.9729 32.4758C27.9729 32.4758 27.9729 32.4704 27.9729 32.4677" fill="white"/>
<path d="M24.6918 39.3538C24.673 39.3538 24.6569 39.3377 24.6569 39.319C24.6569 38.1468 24.8475 37.2154 25.2422 36.4714C25.5912 35.8131 26.0477 35.3822 26.488 34.9647L26.5525 34.9031C27.2855 34.21 27.6211 33.573 27.7742 33.1609C27.9406 32.714 27.9352 32.4276 27.9326 32.4249C27.9326 32.4062 27.946 32.3901 27.9648 32.3901C27.9836 32.3901 27.9997 32.4035 27.9997 32.4223C27.9997 32.433 28.0077 32.722 27.8386 33.1796C27.6829 33.5998 27.3419 34.2475 26.5981 34.9513L26.5337 35.0129C25.6423 35.8559 24.7213 36.7257 24.7213 39.319C24.7213 39.3377 24.7052 39.3538 24.6864 39.3538" fill="white"/>
<path d="M24.6918 39.386C24.6542 39.386 24.6246 39.3566 24.6246 39.3191C24.6246 38.1415 24.818 37.2048 25.2153 36.4555C25.5671 35.7918 26.0262 35.3582 26.4692 34.9407L26.5337 34.8792C27.2613 34.1914 27.5942 33.5571 27.7473 33.1476C27.9111 32.7087 27.9057 32.4277 27.9057 32.4251C27.9057 32.3876 27.9326 32.3581 27.9702 32.3555C28.0077 32.3555 28.0373 32.3822 28.04 32.4197C28.04 32.4304 28.048 32.7248 27.8762 33.1878C27.7204 33.6106 27.3768 34.2636 26.6276 34.9728L26.5632 35.0344C25.6772 35.8721 24.7616 36.7392 24.7616 39.3164C24.7616 39.3539 24.732 39.3833 24.6944 39.3833M24.8448 37.7026C24.7428 38.1817 24.6918 38.7196 24.6918 39.3191C24.6918 38.6875 24.7455 38.1576 24.8421 37.7026M27.9728 32.4224C27.9728 32.4224 27.9782 32.7141 27.809 33.1691C27.656 33.5839 27.315 34.2262 26.5793 34.9247L26.5149 34.9862C26.1417 35.3395 25.7577 35.7035 25.4382 36.2039C25.755 35.7088 26.139 35.3448 26.5149 34.9889L26.5793 34.9273C27.3177 34.2288 27.656 33.5839 27.8117 33.1664C27.9782 32.7141 27.9728 32.4331 27.9728 32.4224Z" fill="white"/>
<path d="M25.6719 39.3537C25.6531 39.3537 25.637 39.3376 25.637 39.3189C25.637 37.1083 26.2491 36.2171 26.8425 35.3553C26.9687 35.1707 27.0895 34.9941 27.205 34.8067C27.8816 33.6934 27.9461 32.5506 27.9488 32.5399C27.9488 32.5212 27.9649 32.5078 27.9837 32.5078C28.0025 32.5078 28.0159 32.5239 28.0159 32.5426C28.0159 32.5533 27.9488 33.7121 27.2641 34.8415C27.1486 35.0315 27.0278 35.2055 26.9016 35.3928C26.3136 36.2465 25.7068 37.1297 25.7068 39.3189C25.7068 39.3376 25.6907 39.3537 25.6719 39.3537Z" fill="white"/>
<path d="M25.6719 39.3857C25.6343 39.3857 25.6047 39.3562 25.6047 39.3188C25.6047 37.1002 26.2196 36.2036 26.8157 35.3365C26.9365 35.1599 27.06 34.9779 27.1755 34.7905C27.8521 33.6772 27.9138 32.5505 27.9138 32.5398C27.9138 32.505 27.9461 32.4783 27.981 32.4756C28.0186 32.4756 28.0481 32.5077 28.0454 32.5452C28.0427 32.5933 27.9729 33.7307 27.2882 34.8601C27.1728 35.0501 27.052 35.2268 26.9231 35.4114C26.3377 36.2625 25.7336 37.1403 25.7336 39.3188C25.7336 39.3562 25.7041 39.3857 25.6665 39.3857M27.9783 32.5425C27.9783 32.5425 27.9058 33.7093 27.2292 34.8253C27.1137 35.018 26.9875 35.2 26.8667 35.374C26.276 36.233 25.6665 37.1216 25.6665 39.3188C25.6665 37.1189 26.276 36.233 26.8667 35.374C26.9956 35.1866 27.1137 35.0127 27.2292 34.8227C27.9058 33.7093 27.9756 32.5505 27.9783 32.5398" fill="white"/>
<path d="M32.2582 39.2064C32.2394 39.2064 32.2233 39.1903 32.2233 39.1716C32.2233 36.7202 30.7546 35.6095 29.7826 34.8735C29.702 34.812 29.6215 34.7531 29.549 34.6942C27.9487 33.4525 27.9326 32.5077 27.9326 32.4703C27.9326 32.4515 27.9487 32.4141 27.9675 32.4141C27.9863 32.4141 27.9997 32.4515 27.9997 32.4703C27.9997 32.481 28.0212 33.415 29.5893 34.63C29.6618 34.6862 29.7423 34.7531 29.8229 34.812C30.8056 35.556 32.2904 36.68 32.2904 39.1663C32.2904 39.185 32.2743 39.2037 32.2555 39.2037" fill="white"/>
<path d="M32.2582 39.2384C32.2206 39.2384 32.191 39.209 32.191 39.1715C32.191 36.7361 30.7304 35.6308 29.7638 34.9002C29.6832 34.8386 29.6027 34.7798 29.5302 34.7209C27.9165 33.4711 27.9031 32.5103 27.9031 32.4702C27.9031 32.438 27.9272 32.3818 27.9702 32.3818C28.0132 32.3818 28.0373 32.438 28.0373 32.4702C28.0373 32.4809 28.0669 33.4042 29.6134 34.6031C29.643 34.6272 29.6752 34.6513 29.7074 34.6754C29.753 34.7102 29.7987 34.7476 29.847 34.7851C30.8351 35.5318 32.328 36.6612 32.328 39.1661C32.328 39.2036 32.2984 39.2357 32.2608 39.2357M27.9702 32.4621C27.9702 32.4621 27.9702 32.4675 27.9702 32.4702C27.9702 32.5103 27.9863 33.439 29.5731 34.6674C29.6483 34.7236 29.7262 34.7851 29.8067 34.8467C30.7841 35.5853 32.2608 36.7013 32.2608 39.1715C32.2608 36.696 30.7868 35.58 29.8094 34.8413C29.7611 34.8038 29.7155 34.7664 29.6671 34.7316C29.6349 34.7075 29.6054 34.6834 29.5758 34.6593C27.9917 33.4309 27.9729 32.4835 27.9729 32.4755C27.9729 32.4755 27.9729 32.4702 27.9729 32.4675" fill="white"/>
<path d="M31.2432 39.3535C31.2244 39.3535 31.2083 39.3375 31.2083 39.3187C31.2083 36.696 30.29 35.8235 29.4013 34.9832L29.3664 34.9511C28.6227 34.2472 28.2736 33.5996 28.1098 33.1794C27.9326 32.7218 27.9299 32.4381 27.9299 32.4247C27.9299 32.406 27.946 32.3926 27.9648 32.3926C27.9836 32.3926 27.9997 32.406 27.9997 32.4247C27.9997 32.4354 28.0159 33.5755 29.4174 34.9029L29.4523 34.935C30.3518 35.7861 31.2808 36.6666 31.2808 39.3187C31.2808 39.3375 31.2647 39.3508 31.2459 39.3508" fill="white"/>
<path d="M31.2432 39.386C31.2056 39.386 31.1761 39.3566 31.1761 39.3191C31.1761 36.7098 30.2632 35.8453 29.3798 35.0077L29.3449 34.9755C28.5985 34.2663 28.2441 33.6133 28.0803 33.1905C27.9004 32.7302 27.8977 32.4358 27.8977 32.4251C27.8977 32.3903 27.9272 32.3608 27.9648 32.3608C28.0024 32.3608 28.032 32.3903 28.032 32.4251C28.032 32.4358 28.0534 33.5678 29.4389 34.8792L29.4738 34.9113C30.3787 35.7677 31.313 36.6536 31.313 39.3191C31.313 39.3566 31.2835 39.386 31.2459 39.386M27.9675 32.4251C27.9675 32.4251 27.9675 32.7168 28.142 33.1664C28.3058 33.5839 28.6522 34.2262 29.3906 34.9274L29.4255 34.9595C30.3196 35.8052 31.2432 36.683 31.2432 39.3191C31.2432 36.6803 30.3196 35.8052 29.4255 34.9595L29.3906 34.9274C27.9809 33.5892 27.9648 32.4358 27.9648 32.4251" fill="white"/>
<path d="M30.2659 39.3537C30.2471 39.3537 30.231 39.3376 30.231 39.3189C30.231 37.1859 29.6456 36.3723 29.0818 35.5828C28.9449 35.3928 28.8026 35.1921 28.6737 34.9807C27.9863 33.8513 27.9219 32.556 27.9219 32.5426C27.9219 32.5239 27.9353 32.5078 27.9541 32.5078C27.9729 32.5078 27.989 32.5212 27.989 32.5399C27.989 32.5533 28.0534 33.8326 28.7327 34.9459C28.8616 35.1546 29.0012 35.3527 29.1382 35.5427C29.7101 36.3402 30.3008 37.1645 30.3008 39.3189C30.3008 39.3376 30.2847 39.3537 30.2659 39.3537Z" fill="white"/>
<path d="M30.2659 39.3859C30.2283 39.3859 30.1988 39.3565 30.1988 39.319C30.1988 37.1967 29.6161 36.3858 29.0549 35.6017C28.9153 35.409 28.773 35.211 28.6441 34.9969C27.9595 33.8702 27.8896 32.5963 27.887 32.5427C27.887 32.5053 27.9138 32.4758 27.9514 32.4731C27.989 32.4731 28.0185 32.5026 28.0212 32.5374C28.0212 32.5882 28.0937 33.8327 28.7596 34.9273C28.8885 35.1387 29.0281 35.3341 29.1623 35.5241C29.7369 36.3243 30.3303 37.1539 30.3303 39.319C30.3303 39.3565 30.3008 39.3859 30.2632 39.3859M27.9541 32.5427C27.9541 32.5963 28.0239 33.8541 28.7005 34.9647C28.8294 35.1762 28.969 35.3715 29.106 35.5615C28.969 35.3715 28.8267 35.1735 28.6978 34.9621C28.0239 33.8514 27.9541 32.5936 27.9514 32.5401" fill="white"/>
<path d="M27.0949 38.8503C27.0761 38.8503 27.0627 38.7834 27.06 38.7647C27.009 37.5336 27.1915 36.4122 27.6211 35.3953C28.0319 34.4211 27.9353 32.8528 27.9326 32.8368C27.9326 32.818 27.946 32.7966 27.9648 32.7939C27.9836 32.7939 27.9997 32.8047 27.9997 32.8234C27.9997 32.8394 28.0991 34.4077 27.6829 35.3979C27.2587 36.4042 27.0761 37.5416 27.1271 38.7647C27.1271 38.7834 27.1137 38.853 27.0949 38.853V38.8503Z" fill="white"/>
<path d="M27.0948 38.8825C27.0358 38.8825 27.0277 38.7675 27.0277 38.7648C26.9767 37.5284 27.1646 36.391 27.5915 35.382C27.997 34.4186 27.903 32.8529 27.9003 32.8369C27.9003 32.8208 27.903 32.8021 27.9137 32.7887C27.9245 32.7727 27.9433 32.762 27.9621 32.7593C28.0024 32.7593 28.0292 32.7834 28.0319 32.8182C28.0319 32.8342 28.1339 34.4078 27.7124 35.4061C27.2935 36.399 27.1056 37.5257 27.1593 38.7568C27.1593 38.7728 27.1512 38.8397 27.127 38.8638C27.1163 38.8745 27.1029 38.8772 27.0948 38.8772M27.1566 37.2527C27.0921 37.7344 27.0707 38.2376 27.0921 38.7568C27.0921 38.7594 27.0921 38.7648 27.0921 38.7675C27.0921 38.7621 27.0921 38.7594 27.0921 38.7568C27.0707 38.2349 27.0921 37.7344 27.1539 37.2527M27.9675 32.8182C27.9675 32.8182 27.9648 32.8262 27.9675 32.8289C27.9675 32.8396 28.0158 33.621 27.903 34.4212C28.0211 33.6157 27.9701 32.8289 27.9701 32.8182" fill="white"/>
<path d="M28.8428 39.1102C28.824 39.1102 28.8106 38.9362 28.8106 38.9175C28.8616 37.6891 28.6844 36.5651 28.2548 35.5427C27.8359 34.5525 27.9352 32.8745 27.9379 32.8585C27.9379 32.8397 27.9567 32.8076 27.9728 32.8076C27.9916 32.8076 28.005 32.8156 28.005 32.8344C28.005 32.8504 27.9057 34.4696 28.3165 35.4437C28.7461 36.4607 28.9287 37.7025 28.8777 38.9229C28.8777 38.9416 28.8616 39.1102 28.8428 39.1102Z" fill="white"/>
<path d="M28.8428 39.1422C28.8428 39.1422 28.8213 39.1368 28.8159 39.1315C28.7837 39.0994 28.7784 38.9174 28.7784 38.9174C28.8294 37.681 28.6441 36.5489 28.2252 35.556C27.801 34.5524 27.9057 32.8717 27.9057 32.8557C27.9057 32.8262 27.9326 32.7754 27.9729 32.7754C28.0239 32.7781 28.04 32.8102 28.0373 32.8369C28.0373 32.853 27.9406 34.4695 28.3461 35.4329C28.7622 36.4204 28.9636 37.6596 28.9099 38.9254C28.8992 39.1449 28.8589 39.1449 28.8428 39.1449M27.9702 32.8557V32.861C27.9702 32.8771 27.8681 34.5444 28.2843 35.5319C28.7085 36.5329 28.8965 37.6729 28.8428 38.9201C28.8428 38.9254 28.8428 38.9335 28.8428 38.9442C28.8428 38.9361 28.8428 38.9281 28.8428 38.9254C28.8965 37.6676 28.6978 36.4392 28.2843 35.4597C27.9004 34.5471 27.9594 33.0644 27.9675 32.8584" fill="white"/>
<path d="M33.0716 39.1959C33.0447 39.1799 33.0125 39.1611 32.9776 39.1451C32.199 38.7918 29.2186 38.5322 27.9701 38.5322C26.7216 38.5322 23.7412 38.7891 22.9626 39.1451C22.925 39.1611 22.8927 39.1799 22.8686 39.1959C22.8686 39.1959 22.541 39.5117 22.7048 40.1942C22.7263 40.1647 22.7424 40.1487 22.7424 40.1487C23.3465 39.758 26.6303 39.4716 27.9701 39.4716C29.3099 39.4716 32.5963 39.758 33.1978 40.1487C33.1978 40.1487 33.2139 40.1647 33.2354 40.1942C33.3992 39.5091 33.0716 39.1959 33.0716 39.1959Z" fill="#32914C"/>
<path d="M22.7022 40.2366C22.7022 40.2366 22.6968 40.2366 22.6942 40.2366C22.678 40.2339 22.6646 40.2206 22.6619 40.2045C22.4955 39.506 22.823 39.1795 22.8365 39.1661C22.8365 39.1661 22.8418 39.1634 22.8418 39.1608C22.8687 39.142 22.9036 39.126 22.9439 39.1072C23.7252 38.7513 26.7109 38.4917 27.9675 38.4917C29.2241 38.4917 32.2098 38.7513 32.9911 39.1072C33.0314 39.126 33.0636 39.142 33.0932 39.1608C33.0932 39.1608 33.0985 39.1634 33.0985 39.1661C33.112 39.1795 33.4422 39.506 33.2731 40.2045C33.2704 40.2206 33.257 40.2339 33.2409 40.2366C33.2247 40.2393 33.2086 40.2339 33.1979 40.2206C33.1818 40.2018 33.171 40.1884 33.1657 40.1831C32.5669 39.8031 29.353 39.5167 27.9648 39.5167C26.5767 39.5167 23.3627 39.8057 22.764 40.1831C22.7586 40.1884 22.7479 40.2018 22.7317 40.2206C22.7237 40.2313 22.7103 40.2366 22.6968 40.2366M22.8875 39.2277C22.8606 39.2571 22.6136 39.5408 22.721 40.1082C23.3439 39.7228 26.5713 39.4311 27.9621 39.4311C29.353 39.4311 32.5803 39.7228 33.2033 40.1082C33.3107 39.5408 33.0663 39.2598 33.0368 39.2277C33.0126 39.2143 32.9858 39.1982 32.9509 39.1822C32.1776 38.8316 29.2107 38.5747 27.9621 38.5747C26.7136 38.5747 23.744 38.8316 22.9734 39.1822C22.9412 39.1982 22.9116 39.2116 22.8875 39.2277Z" fill="white"/>
<path d="M33.2328 40.2689C33.2086 40.2689 33.1871 40.2582 33.1737 40.2394C33.163 40.2234 33.1522 40.2127 33.1468 40.2073C32.5427 39.8326 29.3449 39.5489 27.9675 39.5489C26.5901 39.5489 23.3922 39.8326 22.7881 40.2073C22.7827 40.2127 22.772 40.226 22.7613 40.2394C22.7451 40.2608 22.7156 40.2715 22.6861 40.2689C22.6565 40.2635 22.6351 40.2421 22.627 40.2127C22.4552 39.4954 22.7962 39.1555 22.8123 39.1422C22.8176 39.1368 22.8203 39.1341 22.823 39.1314C22.8525 39.1127 22.8874 39.094 22.9277 39.0752C23.7117 38.7166 26.7055 38.457 27.9648 38.457C29.2241 38.457 32.2178 38.7193 33.0019 39.0752C33.0421 39.094 33.077 39.1127 33.1066 39.1314C33.1119 39.1341 33.1146 39.1368 33.1173 39.1395C33.1334 39.1529 33.4744 39.4927 33.3026 40.21C33.2972 40.2367 33.273 40.2608 33.2462 40.2662C33.2408 40.2662 33.2355 40.2662 33.2301 40.2662M27.9648 39.4794C29.3502 39.4794 32.5803 39.7684 33.1818 40.1511C33.1818 40.1511 33.1871 40.1538 33.1871 40.1565C33.1925 40.1618 33.2059 40.1752 33.2193 40.1966C33.2193 40.1993 33.2247 40.202 33.2301 40.1993C33.2328 40.1993 33.2355 40.1966 33.2381 40.1912C33.4019 39.5088 33.0851 39.1957 33.0717 39.1823C33.0448 39.1636 33.0126 39.1475 32.9723 39.1288C32.1937 38.7755 29.216 38.5159 27.9621 38.5159C26.7082 38.5159 23.7279 38.7755 22.9519 39.1288C22.9143 39.1448 22.8821 39.1636 22.8552 39.1796C22.8391 39.193 22.525 39.5061 22.6888 40.1886C22.6888 40.1912 22.6914 40.1939 22.6968 40.1966C22.7022 40.1966 22.7049 40.1966 22.7076 40.1939C22.7237 40.1725 22.7344 40.1591 22.7398 40.1538C22.7398 40.1538 22.7451 40.1511 22.7451 40.1484C23.3493 39.7657 26.5766 39.4767 27.9648 39.4767M33.2059 40.135C33.2059 40.135 33.1952 40.135 33.1898 40.1297C32.5723 39.747 29.3449 39.458 27.9648 39.458C26.5847 39.458 23.36 39.747 22.7398 40.1297C22.7317 40.135 22.7183 40.135 22.7102 40.1297C22.6995 40.1243 22.6941 40.1163 22.6914 40.1056C22.5814 39.5249 22.8364 39.2305 22.866 39.1984C22.866 39.1984 22.8687 39.1957 22.8713 39.193C22.8955 39.1769 22.9277 39.1609 22.9599 39.1448C23.7359 38.7916 26.7109 38.532 27.9621 38.532C29.2133 38.532 32.1883 38.7889 32.9643 39.1448C32.9992 39.1609 33.0287 39.1769 33.0529 39.193C33.0529 39.193 33.0582 39.1957 33.0582 39.1984C33.0878 39.2305 33.3429 39.5222 33.2328 40.1056C33.2328 40.1163 33.2247 40.1243 33.214 40.1297C33.2086 40.1297 33.2059 40.1324 33.2005 40.1324M27.9594 39.391C29.3153 39.391 32.4595 39.6747 33.1764 40.0494C33.2596 39.5436 33.0502 39.2867 33.0126 39.2465C32.9911 39.2331 32.9643 39.2198 32.9347 39.2064C32.1668 38.8558 29.2079 38.6016 27.9594 38.6016C26.7109 38.6016 23.752 38.8585 22.9841 39.2064C22.9546 39.2198 22.9277 39.2331 22.9062 39.2465C22.8687 39.2867 22.6619 39.5436 22.7425 40.0494C23.4594 39.6747 26.6035 39.391 27.9594 39.391Z" fill="white"/>
<path d="M33.3187 41.1252C33.3483 41.1306 33.3644 41.1333 33.3644 41.1333C33.4959 40.5819 33.3187 40.2635 33.2355 40.1537C33.214 40.1243 33.1979 40.1082 33.1979 40.1082C32.5938 39.7175 29.31 39.4312 27.9702 39.4312C26.6304 39.4312 23.3466 39.7175 22.7425 40.1082C22.7425 40.1082 22.7264 40.1243 22.7049 40.1537C22.6217 40.2635 22.4445 40.5819 22.576 41.1333C22.576 41.1333 22.5921 41.1306 22.6217 41.1252C23.8245 40.8014 26.4209 40.5605 27.9729 40.5257C29.5248 40.5579 32.1212 40.8014 33.3241 41.1252" fill="#32914C"/>
<path d="M22.5734 41.1762C22.5546 41.1762 22.5358 41.1628 22.5331 41.1441C22.3961 40.5767 22.5841 40.2448 22.67 40.1298C22.6942 40.0976 22.7103 40.0789 22.713 40.0789C22.713 40.0789 22.7183 40.0762 22.721 40.0736C23.3198 39.6855 26.574 39.3911 27.9729 39.3911C29.3718 39.3911 32.6233 39.6855 33.2248 40.0736C33.2275 40.0736 33.2301 40.0762 33.2328 40.0789C33.2328 40.0789 33.2516 40.0976 33.2758 40.1298C33.3617 40.2448 33.5497 40.574 33.4127 41.1441C33.4073 41.1655 33.3859 41.1789 33.3644 41.1762C33.3644 41.1762 33.3483 41.1735 33.3214 41.1681C33.3214 41.1681 33.3214 41.1681 33.3187 41.1681C32.3763 40.9139 30.0054 40.6142 27.9783 40.5713C25.9511 40.6142 23.5802 40.9166 22.6378 41.1681C22.6378 41.1681 22.6378 41.1681 22.6351 41.1681C22.6083 41.1735 22.5922 41.1762 22.5922 41.1762C22.5895 41.1762 22.5868 41.1762 22.5841 41.1762M33.3402 41.0852C33.3402 41.0852 33.3402 41.0852 33.3429 41.0852C33.453 40.5767 33.2892 40.2823 33.2113 40.1806C33.1952 40.1619 33.1845 40.1485 33.1791 40.1431C32.5804 39.7658 29.3664 39.4768 27.9783 39.4768C26.5901 39.4768 23.3762 39.7658 22.7774 40.1431C22.772 40.1485 22.7613 40.1619 22.7452 40.1806C22.6673 40.285 22.5035 40.5767 22.6136 41.0852C22.6136 41.0852 22.6136 41.0852 22.6163 41.0852C23.5641 40.8309 25.943 40.5285 27.9756 40.4857C30.0108 40.5285 32.3897 40.8309 33.3375 41.0852" fill="white"/>
<path d="M33.3643 41.2084C33.3643 41.2084 33.3536 41.2084 33.3509 41.2084L33.3079 41.2004C32.3628 40.9462 29.9946 40.6464 27.9675 40.6036C25.943 40.6464 23.5775 40.9462 22.6377 41.2004L22.5921 41.2084C22.5921 41.2084 22.584 41.2084 22.5813 41.2084C22.5813 41.2084 22.5787 41.2084 22.5733 41.2084C22.5384 41.2084 22.5088 41.1843 22.5008 41.1522C22.3612 40.5688 22.5545 40.2316 22.6431 40.1112C22.6673 40.0764 22.6887 40.0576 22.6887 40.0576C22.6914 40.055 22.6968 40.0523 22.6995 40.0496C23.3063 39.6589 26.5686 39.3618 27.9701 39.3618C29.3717 39.3618 32.634 39.6589 33.2381 40.0496C33.2435 40.0523 33.2462 40.055 33.2489 40.0576C33.2542 40.063 33.273 40.0817 33.2945 40.1112C33.3831 40.2289 33.5764 40.5688 33.4368 41.1522C33.4288 41.1843 33.3992 41.2084 33.3643 41.2084ZM27.9675 40.5367C30 40.5795 32.3735 40.8819 33.3187 41.1362L33.367 41.1442C33.367 41.1442 33.3751 41.1442 33.3751 41.1362C33.5093 40.5822 33.3267 40.261 33.2435 40.1486C33.2247 40.1219 33.2086 40.1058 33.2059 40.1031C32.6071 39.7178 29.3663 39.4234 27.9701 39.4234C26.5739 39.4234 23.3331 39.7151 22.7371 40.1005C22.7344 40.1005 22.7183 40.1192 22.6968 40.1486C22.6136 40.261 22.4337 40.5795 22.5652 41.1362C22.5652 41.1415 22.5706 41.1442 22.576 41.1442L22.6216 41.1362C23.5667 40.8819 25.9403 40.5822 27.9701 40.5367M22.6055 41.1174C22.6055 41.1174 22.5948 41.1174 22.5894 41.1121C22.5813 41.1067 22.5787 41.0987 22.576 41.0907C22.4632 40.5661 22.635 40.2664 22.7129 40.1593C22.729 40.1379 22.7398 40.1245 22.7478 40.1192C23.3573 39.7338 26.5874 39.4421 27.9728 39.4421C29.3583 39.4421 32.5883 39.7311 33.1925 40.1138C33.2032 40.1245 33.2166 40.1379 33.2328 40.1593C33.3106 40.2637 33.4825 40.5661 33.3697 41.0907C33.3697 41.0987 33.3616 41.1067 33.3563 41.1121C33.3482 41.1174 33.3401 41.1174 33.3321 41.1148C32.3816 40.8605 30.0054 40.5581 27.9755 40.5153C25.9456 40.5581 23.5694 40.8605 22.6243 41.1148C22.6216 41.1148 22.6189 41.1148 22.6162 41.1148C22.6162 41.1148 22.6109 41.1148 22.6082 41.1148M27.9755 40.4484C29.9893 40.4912 32.344 40.7883 33.3133 41.0425C33.4073 40.5661 33.2542 40.2932 33.1817 40.1968C33.1683 40.1781 33.1576 40.1674 33.1522 40.162C32.5642 39.7927 29.3556 39.5063 27.9755 39.5063C26.5954 39.5063 23.3868 39.7927 22.7935 40.1674C22.7935 40.1674 22.7854 40.1781 22.772 40.1968C22.6995 40.2932 22.5464 40.5661 22.6404 41.0425C23.6097 40.7883 25.9644 40.4912 27.9782 40.4484H27.9755Z" fill="white"/>
<path d="M33.8556 41.2887C33.7456 41.2191 33.5603 41.1496 33.3186 41.0853C32.1158 40.7615 29.5194 40.5206 27.9674 40.4858C26.4155 40.518 23.8191 40.7615 22.6162 41.0853C22.3746 41.1496 22.1893 41.2191 22.0792 41.2887C22.0792 41.2887 21.8295 41.7999 22.0336 42.659C22.0336 42.659 24.7186 42.2093 27.9674 42.1451C31.2136 42.2067 33.9013 42.659 33.9013 42.659C34.1054 41.8026 33.8556 41.2887 33.8556 41.2887Z" fill="#32914C"/>
<path d="M22.0337 42.6992C22.0149 42.6992 21.9961 42.6858 21.9934 42.6671C21.7867 41.8053 22.031 41.2915 22.0418 41.2701C22.0444 41.2621 22.0498 41.2567 22.0579 41.254C22.1653 41.1844 22.3505 41.1149 22.6056 41.0453C23.5534 40.791 25.9323 40.4886 27.9676 40.4458C30.0028 40.4886 32.3844 40.791 33.3295 41.0453C33.5846 41.1149 33.7699 41.1844 33.8773 41.254C33.8826 41.2594 33.888 41.2647 33.8934 41.2701C33.9041 41.2915 34.1484 41.8053 33.9417 42.6671C33.9363 42.6885 33.9148 42.7019 33.8934 42.6992C33.8665 42.6939 31.1735 42.2496 27.9676 42.188C24.7617 42.2496 22.0686 42.6965 22.0418 42.6992C22.0418 42.6992 22.0364 42.6992 22.0337 42.6992ZM22.1143 41.3156C22.082 41.3905 21.8995 41.8642 22.0686 42.6082C22.4123 42.552 24.9657 42.1586 27.9676 42.1024C30.9721 42.1586 33.5255 42.5547 33.8692 42.6082C34.0357 41.8642 33.8531 41.3905 33.8236 41.3156C33.7215 41.2514 33.547 41.1871 33.3107 41.1229C32.3683 40.8686 29.9974 40.5689 27.9702 40.5261C25.9458 40.5689 23.5722 40.8713 22.6298 41.1229C22.3908 41.1871 22.219 41.2514 22.1169 41.3156" fill="white"/>
<path d="M33.9013 42.731C33.9013 42.731 33.8906 42.731 33.8879 42.731C33.861 42.7256 31.1626 42.2813 27.9648 42.2198C24.7589 42.2813 22.0712 42.7283 22.0443 42.731C22.0443 42.731 22.0336 42.731 22.0309 42.731C21.996 42.731 21.9665 42.7069 21.9584 42.6748C21.749 41.8023 21.9987 41.2778 22.0094 41.2563C22.0148 41.243 22.0255 41.2349 22.0363 41.2269C22.1464 41.1546 22.3343 41.0824 22.5921 41.0128C23.5399 40.7586 25.9242 40.4535 27.9621 40.4106C30 40.4535 32.3843 40.7559 33.3348 41.0128C33.5925 41.0824 33.7805 41.1546 33.8932 41.2269C33.904 41.2349 33.9147 41.243 33.9201 41.2563C33.9308 41.2778 34.1779 41.805 33.9711 42.6748C33.9631 42.7095 33.9335 42.731 33.8986 42.731M27.9648 42.1529C31.168 42.2144 33.8718 42.6614 33.8986 42.6641C33.8986 42.6641 33.9067 42.6614 33.9067 42.656C34.108 41.8076 33.8718 41.3018 33.861 41.2804C33.7536 41.2082 33.571 41.1386 33.3187 41.0717C32.3735 40.8174 29.9946 40.515 27.9648 40.4722C25.9349 40.515 23.5587 40.8174 22.6135 41.0717C22.3612 41.1386 22.1786 41.2082 22.0739 41.2751C22.0604 41.2992 21.8215 41.8023 22.0228 42.6533C22.0228 42.6587 22.0282 42.6614 22.0336 42.6614C22.0604 42.656 24.7508 42.2118 27.9648 42.1502M33.8664 42.6373C33.8664 42.6373 33.8637 42.6373 33.861 42.6373C33.5737 42.5918 30.98 42.1904 27.9648 42.1315C24.9495 42.1904 22.3558 42.5918 22.0685 42.6373C22.0497 42.64 22.0363 42.6293 22.0309 42.6132C21.8617 41.8665 22.0416 41.3902 22.0792 41.3018C22.0792 41.2965 22.0873 41.2911 22.0927 41.2858C22.1974 41.2216 22.3746 41.1546 22.6162 41.0904C23.5613 40.8362 25.9349 40.5364 27.9621 40.4909C29.9946 40.5338 32.3682 40.8362 33.3133 41.0904C33.5549 41.1546 33.7321 41.2216 33.8369 41.2858C33.8422 41.2885 33.8476 41.2938 33.8503 41.3018C33.8879 41.3902 34.0678 41.8665 33.8986 42.6132C33.8959 42.6293 33.8825 42.64 33.8664 42.64M27.9648 42.0672C30.8995 42.1234 33.4341 42.5062 33.8395 42.5704C33.9872 41.8826 33.8342 41.441 33.7912 41.3366C33.6892 41.2778 33.5227 41.2162 33.2945 41.1546C32.3547 40.9004 29.9866 40.6007 27.9621 40.5578C25.9376 40.6007 23.5721 40.9031 22.6323 41.1546C22.4041 41.2162 22.2376 41.2778 22.1356 41.3366C22.0927 41.441 21.9396 41.8826 22.0873 42.5704C22.4927 42.5062 25.0274 42.1234 27.9621 42.0672H27.9648Z" fill="white"/>
<path d="M28.1957 32.3716C28.1957 32.4144 28.0937 32.4492 27.9675 32.4492C27.8413 32.4492 27.7393 32.4144 27.7393 32.3716C27.7393 32.3287 27.8413 32.2939 27.9675 32.2939C28.0937 32.2939 28.1957 32.3287 28.1957 32.3716Z" fill="#D0A353"/>
<path d="M28.1313 32.045C28.1313 32.0771 28.0588 32.1012 27.9675 32.1012C27.8762 32.1012 27.8037 32.0771 27.8037 32.045C27.8037 32.0129 27.8762 31.9888 27.9675 31.9888C28.0588 31.9888 28.1313 32.0129 28.1313 32.045Z" fill="#D0A353"/>
<path d="M28.1474 31.7212C28.1474 31.756 28.0668 31.7828 27.9675 31.7828C27.8681 31.7828 27.7876 31.756 27.7876 31.7212C27.7876 31.6864 27.8681 31.6597 27.9675 31.6597C28.0668 31.6597 28.1474 31.6864 28.1474 31.7212Z" fill="#D0A353"/>
<path d="M27.5164 33.3322C27.5164 33.3322 27.9298 33.5918 28.4642 33.3322C28.1903 33.0699 27.997 32.7889 28.0131 32.4678H27.9299C27.9111 32.8291 27.7607 33.1101 27.519 33.3322" fill="#D0A353"/>
<path d="M27.9809 33.482C27.6936 33.482 27.5056 33.3669 27.5002 33.3615C27.4922 33.3562 27.4868 33.3482 27.4841 33.3374C27.4841 33.3267 27.4868 33.3187 27.4949 33.3107C27.7473 33.0778 27.8788 32.8022 27.8976 32.4677C27.8976 32.4516 27.9137 32.4382 27.9298 32.4355H28.0131C28.0131 32.4355 28.0319 32.4355 28.0372 32.4436C28.0426 32.4489 28.048 32.4596 28.0453 32.4677C28.0346 32.7406 28.1742 33.0083 28.4883 33.308C28.4964 33.316 28.4991 33.3267 28.4991 33.3374C28.4991 33.3482 28.491 33.3562 28.4803 33.3615C28.3192 33.4391 28.15 33.4793 27.9835 33.4793" fill="#D0A353"/>
<path d="M15.16 44.8533C15.16 44.8533 15.5279 44.6659 16.1723 44.3368C16.4918 44.1708 16.8919 43.9888 17.3591 43.7962C17.8236 43.5928 18.3498 43.3653 18.9459 43.1806C19.5339 42.9692 20.181 42.7738 20.871 42.5892C21.5584 42.3804 22.3021 42.2439 23.0701 42.0887C23.846 41.9817 24.6435 41.8318 25.4651 41.789C26.284 41.706 27.1217 41.706 27.9594 41.6899C28.7945 41.7194 29.6322 41.7461 30.4484 41.8398C31.2701 41.8933 32.0648 42.0593 32.8354 42.177C34.3712 42.4768 35.7755 42.8675 36.9542 43.2689C38.1383 43.6543 39.0888 44.0718 39.7466 44.3689C40.4018 44.6766 40.775 44.8533 40.775 44.8533C40.775 44.8533 40.3776 44.7382 39.6849 44.5348C39.0029 44.3073 37.9987 44.0638 36.8092 43.7614C36.2158 43.6088 35.5661 43.4589 34.876 43.3358C34.1913 43.186 33.453 43.103 32.7038 42.9665C31.9467 42.8755 31.1653 42.7658 30.3679 42.7149C29.5705 42.6347 28.7596 42.6213 27.9487 42.5999C27.1378 42.6079 26.3243 42.5945 25.5295 42.6668C24.7294 42.7042 23.9507 42.7979 23.1909 42.8809C22.4418 43.0147 21.7034 43.0789 21.0187 43.2341C20.3287 43.3626 19.6816 43.5044 19.0909 43.6704C17.9041 43.9808 16.9187 44.2511 16.2367 44.5C15.5494 44.7248 15.1573 44.8533 15.1573 44.8533" fill="#D0A353"/>
<path d="M86.4039 79.872H84.1216L83.6464 81.8845H82.4301L84.6559 73.5239H85.9877L88.1276 81.8845H86.8711L86.4039 79.872ZM86.1461 78.6971L85.3084 74.7925H85.2896L84.3767 78.6971H86.1461Z" fill="white"/>
<path d="M89.9159 72.9006V76.6019H89.9347C90.1065 76.1228 90.4959 75.6197 91.1993 75.6197C92.2545 75.6197 92.8936 76.7919 92.8936 78.8044C92.8936 80.5172 92.3888 81.9785 91.1725 81.9785C90.4126 81.9785 90.0609 81.4513 89.8702 80.924H89.8407C89.8407 81.3415 89.8219 81.7028 89.8031 81.8821H88.6996C88.7291 81.6547 88.7372 81.2719 88.7372 80.8277V72.8979H89.9159V72.9006ZM90.8476 80.8892C91.5323 80.8892 91.7122 80.172 91.7122 78.7456C91.7122 77.5118 91.4839 76.7089 90.8288 76.7089C90.1737 76.7089 89.9159 77.5841 89.9159 78.7804C89.9159 79.9766 90.1549 80.8892 90.8476 80.8892Z" fill="white"/>
<path d="M97.8474 72.9004V80.8301C97.8474 81.2744 97.8582 81.6571 97.885 81.8846H96.7815C96.7627 81.7053 96.7439 81.344 96.7439 80.9265H96.7144C96.5237 81.4537 96.172 81.9809 95.4121 81.9809C94.1958 81.9809 93.691 80.5197 93.691 78.8069C93.691 76.7943 94.3274 75.6221 95.3853 75.6221C96.0887 75.6221 96.4781 76.1253 96.6499 76.6043H96.6687V72.9031H97.8474V72.9004ZM95.737 80.889C96.4324 80.889 96.6687 79.9416 96.6687 78.7801C96.6687 77.6186 96.4029 76.7087 95.7558 76.7087C95.1087 76.7087 94.8724 77.5116 94.8724 78.7453C94.8724 80.1718 95.0523 80.889 95.737 80.889Z" fill="white"/>
<path d="M102.804 80.8676C102.804 81.2503 102.812 81.6116 102.841 81.8873H101.738C101.73 81.5741 101.7 81.253 101.7 80.9399L101.671 80.9292L101.679 80.9399C101.451 81.3948 101.147 81.9809 100.377 81.9809C99.2651 81.9809 98.9294 80.9399 98.9294 79.6927V75.7158H100.108V79.4171C100.108 80.3645 100.318 80.7579 100.812 80.7579C101.44 80.7579 101.62 80.038 101.62 79.2485V75.7158H102.799V80.8649L102.804 80.8676Z" fill="white"/>
<path d="M105.161 72.9004H103.983V81.8846H105.161V72.9004Z" fill="white"/>
<path d="M107.637 72.9004H106.458V81.8846H107.637V72.9004Z" fill="white"/>
<path d="M109.055 76.0746C109.388 75.8819 109.855 75.6196 110.604 75.6196C112.126 75.6196 112.478 76.5536 112.478 78.1005V80.7955C112.478 81.2398 112.516 81.6465 112.545 81.8847H111.479C111.423 81.6465 111.412 81.3468 111.412 81.0471H111.393C111.098 81.5502 110.727 81.9811 110.024 81.9811C109.264 81.9811 108.558 81.3227 108.558 80.1719C108.558 78.4939 109.643 78.0764 111.135 78.0764H111.374V77.8489C111.374 77.2388 111.135 76.6767 110.462 76.6767C109.871 76.6767 109.347 77.0354 109.119 77.2762L109.052 76.0773L109.055 76.0746ZM111.374 78.8659H111.27C110.26 78.8659 109.661 79.1282 109.661 80.0274C109.661 80.5894 109.957 80.9721 110.413 80.9721C111.117 80.9721 111.374 80.3138 111.374 79.2112V78.8632V78.8659Z" fill="white"/>
<path d="M113.573 72.9033H114.752V76.5082H114.782C114.991 76.1255 115.268 75.6224 116.001 75.6224C117.112 75.6224 117.445 76.6635 117.445 77.9106V81.8875H116.267V78.1863C116.267 77.2415 116.076 76.8454 115.59 76.8454C114.972 76.8454 114.752 77.5038 114.752 78.2933V81.8875H113.573V72.9033Z" fill="white"/>
<path d="M123.959 79.872H121.677L121.202 81.8845H119.983L122.208 73.5239H123.54L125.68 81.8845H124.424L123.959 79.872ZM123.701 78.6971L122.864 74.7925H122.845L121.932 78.6971H123.701Z" fill="white"/>
<path d="M127.565 72.9004H126.386V81.8846H127.565V72.9004Z" fill="white"/>
<path d="M128.744 72.9033H129.922V78.1836H129.952L131.388 75.7161H132.645L130.921 78.5074L132.806 81.8848H131.437L129.952 78.8794H129.922V81.8848H128.744V72.9033Z" fill="white"/>
<path d="M133.502 72.9033H134.68V76.5082H134.707C134.917 76.1255 135.193 75.6224 135.926 75.6224C137.038 75.6224 137.371 76.6635 137.371 77.9106V81.8875H136.192V78.1863C136.192 77.2415 136.001 76.8454 135.515 76.8454C134.898 76.8454 134.68 77.5038 134.68 78.2933V81.8875H133.502V72.9033Z" fill="white"/>
<path d="M140.464 75.6221C141.463 75.6221 142.614 76.2804 142.614 78.7961C142.614 81.3118 141.463 81.9835 140.464 81.9835C139.465 81.9835 138.305 81.384 138.305 78.7961C138.305 76.2082 139.465 75.6221 140.464 75.6221ZM140.464 80.9291C141.224 80.9291 141.395 79.8265 141.395 78.7961C141.395 77.7658 141.224 76.6765 140.464 76.6765C139.704 76.6765 139.521 77.7658 139.521 78.7961C139.521 79.8265 139.701 80.9291 140.464 80.9291Z" fill="white"/>
<path d="M143.517 76.7222C143.517 76.278 143.498 75.9435 143.479 75.716H144.658C144.666 76.0398 144.695 76.3636 144.695 76.6848H144.714C144.894 76.2057 145.275 75.6196 145.952 75.6196C146.779 75.6196 147.045 76.2673 147.187 76.6018C147.426 76.1709 147.778 75.6196 148.5 75.6196C149.566 75.6196 149.907 76.5777 149.907 78.0764V81.8847H148.728V77.9908C148.728 77.2227 148.538 76.84 148.1 76.84C147.576 76.84 147.302 77.4636 147.302 78.146V81.8821H146.124V77.9881C146.124 77.22 145.933 76.8373 145.495 76.8373C144.972 76.8373 144.695 77.4609 144.695 78.1433V81.8794H143.517V76.7169V76.7222Z" fill="white"/>
<path d="M150.984 76.7356C150.984 76.3529 150.973 75.9943 150.946 75.7187H152.012C152.02 76.0907 152.05 76.4734 152.05 76.8454H152.068C152.211 76.3663 152.581 75.625 153.314 75.625C153.389 75.625 153.448 75.6491 153.513 75.6598V77.0488C153.408 77.014 153.303 76.9899 153.18 76.9899C152.694 76.9899 152.162 77.3619 152.162 78.51V81.8874H150.984V76.7356Z" fill="white"/>
<path d="M154.388 73.0933H155.604V74.5545H154.388V73.0933ZM154.407 75.716H155.586V81.8848H154.407V75.716Z" fill="white"/>
<path d="M159.479 76.0746C159.812 75.8819 160.279 75.6196 161.028 75.6196C162.551 75.6196 162.902 76.5536 162.902 78.1005V80.7955C162.902 81.2398 162.94 81.6465 162.97 81.8847H161.904C161.847 81.6465 161.836 81.3468 161.836 81.0471H161.818C161.522 81.5502 161.152 81.9811 160.448 81.9811C159.688 81.9811 158.982 81.3227 158.982 80.1719C158.982 78.4939 160.067 78.0764 161.56 78.0764H161.799V77.8489C161.799 77.2388 161.56 76.6767 160.886 76.6767C160.295 76.6767 159.774 77.0354 159.543 77.2762L159.476 76.0773L159.479 76.0746ZM161.799 78.8659H161.694C160.685 78.8659 160.086 79.1282 160.086 80.0274C160.086 80.5894 160.381 80.9721 160.838 80.9721C161.541 80.9721 161.799 80.3138 161.799 79.2112V78.8632V78.8659Z" fill="white"/>
<path d="M163.998 76.7354C163.998 76.3527 163.987 75.9941 163.96 75.7184H165.064C165.074 76.0289 165.101 76.3527 165.101 76.6631H165.12C165.292 76.2911 165.625 75.6221 166.422 75.6221C167.534 75.6221 167.867 76.6631 167.867 77.9103V81.8872H166.688V78.1859C166.688 77.2385 166.498 76.8451 166.012 76.8451C165.394 76.8451 165.174 77.5035 165.174 78.2957V81.8899H163.995V76.7381L163.998 76.7354Z" fill="white"/>
<path d="M172.958 72.9004V80.8301C172.958 81.2744 172.968 81.6571 172.995 81.8846H171.892C171.873 81.7053 171.854 81.344 171.854 80.9265H171.825C171.634 81.4537 171.282 81.9809 170.522 81.9809C169.306 81.9809 168.801 80.5197 168.801 78.8069C168.801 76.7943 169.438 75.6221 170.493 75.6221C171.196 75.6221 171.588 76.1253 171.757 76.6043H171.776V72.9031H172.955L172.958 72.9004ZM170.847 80.889C171.543 80.889 171.779 79.9416 171.779 78.7801C171.779 77.6186 171.513 76.7087 170.866 76.7087C170.219 76.7087 169.983 77.5116 169.983 78.7453C169.983 80.1718 170.163 80.889 170.85 80.889" fill="white"/>
<path d="M176.601 80.2682C176.84 80.4609 177.361 80.782 178.008 80.782C178.54 80.782 179.018 80.41 179.018 79.5723C179.018 78.9729 178.741 78.7106 178.151 78.3038L177.533 77.8729C176.875 77.418 176.448 76.7596 176.448 75.6811C176.448 74.1824 177.428 73.4062 178.54 73.4062C179.243 73.4062 179.737 73.6337 179.928 73.706L179.872 74.9879C179.576 74.8434 179.187 74.6293 178.626 74.6293C178.016 74.6293 177.702 75.0361 177.702 75.6115C177.702 76.2351 178.035 76.4732 178.406 76.7382L179.12 77.2413C179.901 77.7926 180.272 78.3199 180.272 79.4947C180.272 81.1941 179.31 82.0104 178.046 82.0104C177.38 82.0104 176.867 81.89 176.534 81.6384L176.601 80.2735V80.2682Z" fill="white"/>
<path d="M183.298 75.6221C184.296 75.6221 185.448 76.2804 185.448 78.7961C185.448 81.3118 184.296 81.9835 183.298 81.9835C182.299 81.9835 181.139 81.384 181.139 78.7961C181.139 76.2082 182.299 75.6221 183.298 75.6221ZM183.298 80.9291C184.058 80.9291 184.229 79.8265 184.229 78.7961C184.229 77.7658 184.058 76.6765 183.298 76.6765C182.538 76.6765 182.355 77.7658 182.355 78.7961C182.355 79.8265 182.535 80.9291 183.298 80.9291Z" fill="white"/>
<path d="M186.38 76.7354C186.38 76.3527 186.369 75.9941 186.342 75.7184H187.446C187.454 76.0289 187.484 76.3527 187.484 76.6631H187.502C187.674 76.2911 188.007 75.6221 188.805 75.6221C189.916 75.6221 190.249 76.6631 190.249 77.9103V81.8872H189.07V78.1859C189.07 77.2385 188.88 76.8451 188.396 76.8451C187.779 76.8451 187.559 77.5035 187.559 78.2957V81.8899H186.38V76.7381V76.7354Z" fill="white"/>
<path d="M191.184 80.4474C191.374 80.5437 191.858 80.8542 192.411 80.8542C192.838 80.8542 193.17 80.723 193.17 80.244C193.17 80.0058 193.077 79.7783 192.647 79.4652L192.161 79.1066C191.667 78.7346 191.124 78.3411 191.124 77.3697C191.124 76.5186 191.78 75.6221 192.819 75.6221C193.447 75.6221 193.93 75.8255 194.046 75.8736L193.979 77.0244C193.683 76.8799 193.369 76.7488 192.942 76.7488C192.467 76.7488 192.266 76.9763 192.266 77.3483C192.266 77.6828 192.475 77.8621 192.816 78.1377L193.396 78.6034C194.006 79.0932 194.309 79.4411 194.309 80.161C194.309 81.2984 193.549 81.9809 192.483 81.9809C191.874 81.9809 191.369 81.8015 191.122 81.6811L191.178 80.4474H191.184Z" fill="white"/>
<path d="M91.4222 68.3297H88.3774C88.1868 67.69 87.8619 66.8872 87.4028 65.921L86.3932 63.8255C85.5447 63.9968 84.4278 64.5508 83.045 65.4955C81.5146 66.5419 80.7466 67.4197 80.7466 68.1316C80.7466 68.1985 80.7574 68.2628 80.7815 68.3243L80.1479 68.3323L78.6228 68.3243C79.0175 68.0433 79.8257 66.7025 81.0447 64.2939C81.7374 62.9317 82.6503 61.1065 83.7861 58.8156C83.7995 58.754 83.8075 58.6952 83.8075 58.6336C83.8075 58.2696 83.6115 57.9378 83.2222 57.6407C83.0128 57.5122 82.806 57.3838 82.602 57.25H84.4144C84.9379 57.2098 85.2762 57.3356 85.4239 57.6193C85.9287 58.5854 86.506 59.8406 87.2873 61.6337C88.1411 63.5981 88.7721 64.9817 89.1802 65.7899C89.5239 66.4777 89.8434 66.9942 90.1415 67.3395C90.4932 67.7596 90.9201 68.0915 91.4222 68.3323M86.1328 63.3224L84.3821 59.9343L81.4367 65.5704C81.8314 65.1155 82.5832 64.6578 83.6975 64.1949C83.9284 64.0985 84.7419 63.8068 86.1328 63.3197" fill="white"/>
<path d="M100.79 66.0787C100.132 67.1733 99.802 68.1287 99.802 68.9396C99.2355 68.5543 98.089 68.3776 96.3572 68.4071L92.9204 68.4713C93.2775 68.0244 93.4815 67.7086 93.5325 67.5239L93.5889 66.7826V59.5353C93.5889 59.1446 93.4896 58.7592 93.2909 58.3791C93.0224 57.868 92.6143 57.4906 92.0719 57.2524H95.2456V67.3874C95.2644 67.4061 95.3315 67.4329 95.447 67.4677C95.6698 67.54 95.9517 67.5774 96.2954 67.5774C97.9789 67.5774 99.4771 67.077 100.793 66.0787" fill="white"/>
<path d="M126.872 68.4099H122.007C122.171 68.3939 123.782 68.1771 123.782 66.0709V63.1029H117.961V66.4509C118.125 67.6445 119.046 68.3751 119.572 68.4072H114.69C114.854 68.3912 116.465 68.1744 116.465 66.0682V59.5863C116.465 57.5309 114.919 57.266 114.69 57.2312H119.572C119.046 57.2633 118.125 57.9939 117.961 59.2036V61.7567H123.782V59.5836C123.782 57.5283 122.235 57.2633 122.007 57.2285H126.872C126.33 57.2794 125.361 58.0582 125.245 59.3347V66.2983C125.361 67.591 126.33 68.3698 126.872 68.4046" fill="white"/>
<path d="M129.026 58.7379C130.011 57.7343 131.295 57.2339 132.838 57.2339C133.875 57.2339 134.777 57.4774 135.617 57.9458C136.423 58.4302 137.048 59.0778 137.475 59.9369C137.902 60.796 138.117 61.7327 138.117 62.8192C138.117 63.9058 137.886 64.8907 137.443 65.7497C137 66.6249 136.342 67.2725 135.521 67.7248C134.683 68.161 133.794 68.3885 132.825 68.3885C131.789 68.3885 130.868 68.1289 130.046 67.6445C129.241 67.1762 128.599 66.4803 128.188 65.6373C127.777 64.797 127.565 63.9058 127.565 62.9504C127.565 61.1546 128.059 59.7603 129.028 58.7433M130.245 66.2529C130.935 67.045 131.807 67.4679 132.825 67.4679C133.843 67.4679 134.747 67.0477 135.44 66.2368C136.114 65.4446 136.46 64.2938 136.46 62.8219C136.46 61.8825 136.297 61.0583 136.017 60.3785C135.722 59.6827 135.311 59.1314 134.753 58.7433C134.194 58.3552 133.553 58.1599 132.846 58.1599C131.877 58.1599 131.021 58.5319 130.298 59.2759C129.592 60.0038 129.23 61.2509 129.23 62.9985C129.23 64.3741 129.576 65.458 130.25 66.2529" fill="white"/>
<path d="M153.779 57.2339C153.091 57.5069 152.944 58.0073 152.938 58.1786V66.8577C152.938 67.0771 152.946 67.2431 152.965 67.3582C152.997 67.5535 153.027 67.69 153.056 67.7676C153.153 68.0299 153.325 68.244 153.572 68.4153H151.024C151.386 68.1423 151.585 67.7489 151.623 67.2404L151.649 66.8577L151.628 59.4552C151.628 59.1099 151.598 58.8236 151.537 58.5988L147.563 63.3679C147.136 63.8844 146.924 64.3286 146.924 64.698C146.924 64.7595 146.932 64.8184 146.945 64.8799L141.919 59.4017V65.6186C141.919 66.1726 142.077 66.6918 142.392 67.1762C142.601 67.5053 142.972 67.9175 143.506 68.4153H140.045C140.681 67.88 141.063 67.1066 141.063 66.5472V58.4436C141.063 58.4436 140.48 57.721 139.255 57.2339H141.922C142.346 57.4185 142.671 57.7022 142.945 58.0394L146.991 62.7042L150.97 57.9297C151.212 57.6246 151.456 57.3516 151.803 57.2339H153.776H153.779Z" fill="white"/>
<path d="M164.768 68.4233L161.082 68.434C161.525 68.3832 161.656 67.9523 161.428 67.4384L158.832 63.7399C158.437 63.7559 158.042 63.7559 157.664 63.7399V66.0789C157.664 67.4706 158.665 68.351 159.243 68.418H154.557C154.59 68.418 154.622 68.4019 154.657 68.3671C154.788 68.335 154.968 68.2681 155.151 68.1691C155.594 67.9202 156.072 67.4224 156.171 66.3947V59.2973C156.023 57.5898 154.692 57.2821 154.428 57.2339H160.333C161.992 57.2339 164.409 58.0501 164.014 60.8682C163.767 62.5917 162.304 63.1939 160.529 63.5418L163.388 67.4866C163.931 68.1155 164.065 68.1637 164.771 68.4206M157.667 58.6657V62.4927C162.089 62.4927 162.567 61.3633 162.567 60.4668C162.567 59.0404 161.219 58.6657 159.855 58.6657H157.669H157.667Z" fill="white"/>
<path d="M170.751 68.3187H165.867C166.03 68.3026 167.641 68.0885 167.641 65.9957V59.57C167.641 57.528 166.095 57.2631 165.867 57.231H170.751C170.176 57.2791 169.123 58.1543 169.123 59.57V65.9957C169.123 67.4114 170.176 68.2866 170.751 68.3187Z" fill="white"/>
<path d="M187.583 58.5049C188.568 57.4772 189.852 56.9634 191.396 56.9634C192.432 56.9634 193.334 57.2123 194.175 57.694C194.98 58.1918 195.606 58.8555 196.033 59.7333C196.46 60.6111 196.674 61.5746 196.674 62.6852C196.674 63.7959 196.443 64.8075 196 65.6853C195.557 66.5818 194.9 67.2429 194.078 67.7085C193.24 68.1555 192.352 68.3883 191.382 68.3883C190.346 68.3883 189.425 68.1234 188.603 67.6256C187.798 67.1438 187.156 66.432 186.745 65.5702C186.334 64.7085 186.12 63.7959 186.12 62.8163C186.12 60.9751 186.614 59.5513 187.583 58.5049ZM188.799 66.1991C189.489 67.0127 190.362 67.4436 191.38 67.4436C192.397 67.4436 193.302 67.0127 193.995 66.1831C194.669 65.3695 195.015 64.1946 195.015 62.6852C195.015 61.7244 194.851 60.8787 194.572 60.1829C194.277 59.471 193.866 58.9063 193.305 58.5076C192.746 58.1088 192.104 57.9108 191.398 57.9108C190.429 57.9108 189.573 58.2908 188.85 59.0562C188.144 59.8029 187.782 61.0795 187.782 62.8699C187.782 64.2803 188.128 65.3909 188.802 66.2018" fill="white"/>
<path d="M113.396 68.4233H109.457C109.933 68.3912 110.086 67.9844 109.839 67.4545L106.533 62.7282L104.71 64.5187V66.4241C104.858 67.6499 105.795 68.3965 106.321 68.4313H101.44C101.604 68.4153 103.215 68.1985 103.215 66.0923V59.6265C103.215 57.5711 101.668 57.3061 101.44 57.2714H106.321C105.795 57.3035 104.858 58.0501 104.71 59.2785V62.7443L109.608 57.919C109.954 57.638 109.425 57.266 109.065 57.2339C110.66 57.2339 111.949 57.2339 112.835 57.2419C112.038 57.5845 110.918 58.6175 110.918 58.6175L107.567 61.7327L111.366 66.9219C111.909 67.5508 112.478 68.062 113.394 68.4206" fill="white"/>
<path d="M198.498 67.6927C198.498 68.0754 198.189 68.3858 197.81 68.3858C197.432 68.3858 197.123 68.0754 197.123 67.6927C197.123 67.31 197.432 66.9995 197.81 66.9995C198.189 66.9995 198.498 67.31 198.498 67.6927Z" fill="white"/>
<path d="M184.643 59.102C184.643 59.102 184.629 59.0884 184.624 59.083C184.624 59.083 184.635 59.0966 184.643 59.102Z" fill="white"/>
<path d="M183.886 57.2578C183.276 57.0624 182.626 56.9634 181.923 56.9634C180.261 56.9634 178.883 57.4772 177.823 58.5049C176.781 59.5486 176.25 60.9751 176.25 62.8163C176.25 63.6754 176.427 64.4836 176.77 65.2517C176.819 65.3588 176.867 65.4632 176.921 65.5675C177.184 66.0814 177.538 66.5417 177.963 66.9324C178.25 67.1974 178.569 67.4302 178.916 67.6229C179.799 68.1207 180.79 68.3856 181.901 68.3856C182.876 68.3856 183.773 68.1796 184.621 67.7888C184.492 67.3499 184.506 66.8361 184.621 66.2714C183.894 67.0395 183.005 67.4409 181.901 67.4409C180.798 67.4409 179.869 67.01 179.128 66.1965C178.916 65.9583 178.736 65.6906 178.585 65.3989C178.223 64.7004 178.032 63.8574 178.032 62.8645C178.032 62.4122 178.057 61.9921 178.108 61.604C178.223 60.7101 178.47 59.9983 178.843 59.4603C178.948 59.3105 179.055 59.1713 179.182 59.0509C179.96 58.2881 180.878 57.9054 181.92 57.9054C182.68 57.9054 183.37 58.1035 183.969 58.5022C184.216 58.6655 184.428 58.8635 184.621 59.0803C184.53 58.537 184.522 58.0258 184.621 57.5495C184.38 57.4344 184.135 57.3381 183.883 57.2551" fill="white"/>
<path d="M22.4445 45.5949H22.9734V47.8831H23.7923V44.875H22.9734L22.4445 45.5949Z" fill="white"/>
<path d="M26.8317 45.0918C26.6116 44.9071 26.327 44.8135 25.9806 44.8135C25.6342 44.8135 25.3711 44.9098 25.1482 45.0998C24.9039 45.3113 24.7831 45.5869 24.7831 45.9322C24.7831 46.0633 24.7992 46.1891 24.8314 46.3015C24.8636 46.4166 24.9281 46.5664 25.0194 46.7538H25.9484C25.8195 46.5477 25.7309 46.3871 25.6826 46.272C25.6342 46.157 25.6101 46.0446 25.6101 45.9375C25.6101 45.8144 25.6423 45.7154 25.7067 45.6351C25.7738 45.5521 25.8651 45.5093 25.9806 45.5093C26.088 45.5093 26.1766 45.5494 26.2491 45.6297C26.3216 45.71 26.3592 45.8064 26.3592 45.9241C26.3592 46.0713 26.2947 46.2613 26.1632 46.4942L25.3818 47.8858H26.327L26.9499 46.7564C27.0439 46.5852 27.111 46.4406 27.1459 46.3229C27.1835 46.2051 27.2023 46.0767 27.2023 45.9429C27.2023 45.7743 27.17 45.6164 27.1029 45.4692C27.0358 45.322 26.9445 45.1989 26.8264 45.0972" fill="white"/>
<path d="M29.8738 46.3173C30.0215 46.1995 30.1262 46.0925 30.1853 45.9961C30.2444 45.8998 30.2739 45.7847 30.2739 45.6509C30.2739 45.5305 30.2444 45.4154 30.1853 45.3057C30.1262 45.1959 30.0457 45.105 29.9437 45.0354C29.7315 44.8882 29.4496 44.8159 29.0979 44.8159C28.5958 44.8159 28.2441 44.9363 28.0427 45.1772C27.9272 45.3164 27.8682 45.4743 27.8682 45.6536C27.8682 45.8061 27.9111 45.9426 27.9997 46.0711C28.0507 46.146 28.1367 46.2263 28.2575 46.32C28.0883 46.4458 27.9729 46.5608 27.9084 46.6706C27.844 46.7776 27.8118 46.9087 27.8118 47.0613C27.8118 47.3343 27.9192 47.5484 28.1367 47.7036C28.2575 47.7866 28.389 47.8481 28.534 47.8883C28.679 47.9284 28.8535 47.9471 29.0549 47.9471C29.4228 47.9471 29.7181 47.8802 29.9383 47.7437C30.2041 47.5805 30.3357 47.345 30.3357 47.0452C30.3357 46.8766 30.2873 46.7268 30.1907 46.593C30.1289 46.51 30.0215 46.419 29.8712 46.3226M29.412 47.1121C29.3342 47.2085 29.2214 47.2567 29.0737 47.2567C28.9368 47.2567 28.8321 47.2192 28.7569 47.1443C28.6871 47.0774 28.6522 46.9944 28.6522 46.8927C28.6522 46.8044 28.6763 46.7214 28.7274 46.6465C28.7784 46.5715 28.8777 46.4725 29.0227 46.3467C28.8911 46.2263 28.8025 46.1353 28.7596 46.0657C28.7139 45.9988 28.6924 45.9239 28.6924 45.8463C28.6924 45.7499 28.7274 45.6696 28.7945 45.6054C28.8616 45.5439 28.9529 45.5117 29.071 45.5117C29.1784 45.5117 29.267 45.5439 29.3368 45.6054C29.4067 45.667 29.4416 45.7473 29.4416 45.8436C29.4416 45.9212 29.4174 45.9961 29.3718 46.0711C29.3234 46.146 29.2402 46.237 29.114 46.3494C29.259 46.4645 29.3583 46.5608 29.412 46.6358C29.4657 46.7134 29.4926 46.799 29.4926 46.8927C29.4926 46.973 29.4657 47.0479 29.412 47.1121Z" fill="white"/>
<path d="M33.2462 46.5851C33.1925 46.4647 33.1227 46.363 33.0314 46.28C32.8461 46.1141 32.5749 46.0311 32.2125 46.0311H31.8903V45.5976H33.1549V44.875H31.2861V46.7537H32.1641C32.3574 46.7537 32.4568 46.8233 32.4568 46.9598C32.4568 47.1043 32.3601 47.1766 32.1695 47.1766H31.2861V47.8831H32.2447C32.4219 47.8831 32.5722 47.8644 32.6931 47.8269C32.8166 47.7894 32.924 47.7306 33.0206 47.6476C33.1173 47.5646 33.1898 47.4603 33.2462 47.3398C33.2999 47.2167 33.3267 47.0909 33.3267 46.9571C33.3267 46.8233 33.2999 46.7029 33.2489 46.5824" fill="white"/>
</g>
</svg>
