<svg width="476" height="576" viewBox="0 0 476 576" fill="none" xmlns="http://www.w3.org/2000/svg">
<path d="M293.114 84.2759C247.934 76.9746 213.93 42.4498 204.683 0C204.137 2.31144 203.591 4.65956 203.19 7.04438C195.035 58.3363 229.658 106.583 280.554 114.802C323.696 121.773 364.544 97.7042 381 58.9601C357.7 79.3228 325.953 89.5592 293.114 84.2759Z" fill="#F8F8F8"/>
<path d="M560.255 576L559.161 507.32C559.161 317.347 440.007 176.089 282.534 135.974C125.06 176.089 7.87552 317.347 7.87552 507.32L7.25569 576H0L1.89597 459.189C1.89597 288.418 122.143 142.969 282.534 103C442.924 142.969 565.104 288.418 565.104 459.189L567 576H560.255Z" fill="#F8F8F8"/>
</svg>
