<svg width="501" height="509" viewBox="0 0 501 509" fill="none" xmlns="http://www.w3.org/2000/svg">
<path d="M258.995 74.466C219.074 68.0146 189.028 37.5085 180.857 0C180.375 2.04238 179.892 4.11718 179.538 6.2244C172.332 51.5459 202.925 94.1766 247.897 101.438C286.017 107.598 322.11 86.3312 336.651 52.097C316.063 70.0894 288.012 79.1343 258.995 74.466Z" fill="#F8F8F8"/>
<path d="M495.04 508.952L494.073 448.267C494.073 280.408 388.79 155.592 249.646 120.146C110.503 155.592 6.95879 280.408 6.95879 448.267L6.41112 508.952H0L1.67528 405.739C1.67528 254.846 107.926 126.327 249.646 91.0106C391.367 126.327 499.325 254.846 499.325 405.739L501 508.952H495.04Z" fill="#F8F8F8"/>
</svg>
